<svg width="395" height="349" viewBox="0 0 395 349" fill="none" xmlns="http://www.w3.org/2000/svg">
<path d="M389.376 103.723H389.375L389.362 103.71L363.866 100.073C360.282 99.5623 357.791 96.2434 358.301 92.6599C358.546 90.9378 359.466 89.3844 360.857 88.3407L381.464 72.8857C384.36 70.7138 384.947 66.6059 382.775 63.7098L359.179 32.2494C357.008 29.3532 352.9 28.7666 350.003 30.9385L329.403 46.3935C326.52 48.5818 322.408 48.0181 320.22 45.1342C319.158 43.7341 318.702 41.9653 318.956 40.2259L322.6 14.7299C323.114 11.1464 320.626 7.82581 317.043 7.3113C317.04 7.3113 317.038 7.31048 317.036 7.31048L278.13 1.75248C274.547 1.23797 271.225 3.72531 270.71 7.30884V7.31048L267.066 32.8065C266.556 36.39 263.237 38.8815 259.653 38.3711C257.931 38.1261 256.378 37.2061 255.334 35.8149L239.886 15.2083C237.714 12.3122 233.606 11.7256 230.71 13.8975L211.014 28.6773C202.104 27.7302 193.118 27.7302 184.207 28.6773C125.853 35.3471 80.0921 81.8839 74.4038 140.342C74.2269 142.197 74.1613 144.039 74.0696 145.88H72.1033C68.9933 145.886 66.3151 148.077 65.6932 151.124L61.1643 172.661L43.0221 160.149C40.4184 158.352 36.9021 158.673 34.6654 160.909L15.0027 180.572C12.7693 182.808 12.4498 186.319 14.2424 188.922L26.6955 207.032L5.15165 211.561C2.13834 212.221 -0.00653927 214.893 1.498e-05 217.977V244.194C-0.00162358 247.294 2.17029 249.972 5.20409 250.611L26.7479 255.14L14.2948 273.249C12.5022 275.852 12.8218 279.363 15.0551 281.599L34.7179 301.262C36.9545 303.499 40.4709 303.819 43.0745 302.022L61.1839 289.536L65.7129 311.08C66.3347 314.127 69.013 316.318 72.123 316.324H98.34C101.44 316.325 104.118 314.153 104.757 311.12L109.286 289.576L127.395 302.029C129.998 303.821 133.509 303.502 135.745 301.269L145.924 291.057V309.737C145.953 319.061 150.948 327.663 159.032 332.309V368.725C159.032 383.204 170.77 394.942 185.249 394.942H211.466C225.945 394.942 237.683 383.204 237.683 368.725V332.309C245.767 327.663 250.762 319.061 250.792 309.737V283.795C250.97 272.88 256.68 262.802 265.952 257.04C271.391 253.512 276.549 249.567 281.38 245.243L272.637 235.477C268.315 239.351 263.698 242.881 258.827 246.036C245.813 254.204 237.846 268.43 237.683 283.795V309.737C237.683 316.977 231.815 322.845 224.575 322.845H172.141C164.901 322.845 159.032 316.977 159.032 309.737V283.251C158.881 268.177 151.039 254.225 138.242 246.259C86.2941 213.617 70.6425 145.044 103.284 93.0958C123.537 60.8644 158.882 41.2467 196.949 41.1107C196.851 41.3442 196.765 41.5826 196.693 41.8252C196.45 43.5456 196.9 45.2932 197.945 46.6819L213.393 67.2819C215.022 69.3899 215.178 72.2852 213.787 74.5571C212.446 76.8429 209.855 78.0898 207.232 77.7097L181.736 74.0655C178.153 73.5518 174.832 76.04 174.318 79.6227C174.318 79.6251 174.317 79.6276 174.317 79.6301L168.752 118.556C168.239 122.138 170.727 125.46 174.309 125.974C174.312 125.974 174.314 125.975 174.317 125.975L199.813 129.619C203.396 130.13 205.888 133.449 205.377 137.032C205.132 138.754 204.212 140.308 202.821 141.351L182.221 156.8C179.325 158.972 178.738 163.08 180.91 165.976L204.506 197.436C206.678 200.332 210.785 200.919 213.682 198.747L234.288 183.299C237.187 181.131 241.295 181.723 243.462 184.623C244.5 186.01 244.946 187.751 244.703 189.466L241.065 214.962C240.551 218.545 243.038 221.867 246.622 222.382H246.623L285.556 227.946C285.862 227.985 286.171 228.005 286.48 228.005C289.743 228.009 292.511 225.612 292.975 222.382L296.613 196.886C297.123 193.302 300.442 190.811 304.025 191.321C305.748 191.566 307.301 192.486 308.345 193.877L323.8 214.477C325.971 217.373 330.079 217.96 332.976 215.788L364.436 192.193C367.332 190.021 367.919 185.913 365.747 183.017L350.298 162.417C348.677 160.305 348.521 157.415 349.905 155.142C351.217 152.825 353.832 151.57 356.459 151.996L381.955 155.633C385.538 156.148 388.86 153.659 389.375 150.077V150.075L394.933 111.143C395.447 107.559 392.96 104.238 389.376 103.723ZM172.141 335.954H224.575V349.062H172.141V335.954ZM172.141 362.171H224.575V368.725C224.575 375.965 218.706 381.833 211.466 381.833H185.249C178.009 381.833 172.141 375.965 172.141 368.725V362.171ZM119.962 249.143C123.541 252.069 127.28 254.794 131.164 257.303C137.357 261.216 142.018 267.137 144.37 274.075L130.312 288.108L116.698 278.722C110.737 274.614 102.575 276.117 98.4661 282.078C97.4813 283.507 96.7899 285.118 96.4327 286.816L92.9983 303.182H77.4188L73.9844 286.843C72.4933 279.758 65.5417 275.224 58.4574 276.715C56.759 277.072 55.1483 277.763 53.7186 278.748L40.0989 288.108L28.1571 276.192L37.5362 262.585C41.6482 256.627 40.1505 248.463 34.1919 244.351C32.7614 243.364 31.1491 242.671 29.4483 242.313L13.1085 238.872V223.299L29.4483 219.858C36.5301 218.356 41.0542 211.398 39.5524 204.316C39.1961 202.635 38.5136 201.042 37.5428 199.625L28.1571 185.979L40.0989 174.064L53.7252 183.449C59.6887 187.553 67.8512 186.046 71.955 180.082C72.9382 178.654 73.628 177.045 73.9844 175.348L75.1314 169.895C76.1817 177.447 77.921 184.886 80.3289 192.121C58.7629 194.692 43.3646 214.259 45.9355 235.825C48.5064 257.391 68.0741 272.79 89.64 270.219C102.622 268.67 113.987 260.771 119.962 249.143ZM109.784 239.908C104.889 253.512 89.894 260.572 76.2898 255.679C62.6857 250.784 55.6251 235.789 60.5187 222.185C64.2628 211.778 74.1441 204.846 85.2044 204.869C85.2896 204.869 85.3683 204.869 85.4535 204.869C91.4809 217.865 99.7123 229.719 109.784 239.908ZM377.289 141.712L358.281 138.998C347.531 137.463 337.572 144.934 336.036 155.684C335.299 160.846 336.643 166.09 339.772 170.262L351.288 185.619L330.314 201.349L318.792 185.999C312.277 177.31 299.953 175.548 291.265 182.063C287.093 185.191 284.335 189.849 283.596 195.011L280.941 214.045L254.993 210.335L257.707 191.328C259.246 180.578 251.779 170.615 241.029 169.077C235.864 168.337 230.617 169.681 226.443 172.812L211.086 184.328L195.356 163.354L210.706 151.832C219.394 145.317 221.157 132.992 214.642 124.305C211.514 120.133 206.856 117.374 201.694 116.635L182.687 113.922L186.396 87.9736L205.404 90.6871C216.153 92.2265 226.116 84.7596 227.654 74.0098C228.394 68.8442 227.051 63.5975 223.919 59.4233L212.364 44.0536L233.338 28.3234L244.86 43.68C251.375 52.3685 263.7 54.1308 272.387 47.6158C276.559 44.4878 279.318 39.8302 280.057 34.6679L282.77 15.6606L308.718 19.3637L306.005 38.3711C304.469 49.1217 311.94 59.0809 322.69 60.6162C327.853 61.3535 333.097 60.0099 337.269 56.8803L352.625 45.3644L368.355 66.338L352.999 77.8604C344.31 84.3753 342.548 96.6998 349.063 105.387C352.191 109.559 356.849 112.318 362.011 113.057L381.018 115.77L377.289 141.712Z" fill="#E5E7EA"/>
<path d="M281.833 62.4055C252.874 62.4055 229.399 85.8812 229.399 114.839C229.399 143.798 252.874 167.273 281.833 167.273C310.791 167.273 334.267 143.798 334.267 114.839C334.234 85.8943 310.778 62.4374 281.833 62.4055ZM281.833 154.165C260.114 154.165 242.507 136.559 242.507 114.839C242.507 93.1203 260.114 75.514 281.833 75.514C303.552 75.514 321.158 93.1203 321.158 114.839C321.133 136.548 303.541 154.14 281.833 154.165Z" fill="#E5E7EA"/>
<path d="M204.912 290.074H191.804V309.737H204.912V290.074Z" fill="#E5E7EA"/>
<path d="M169.69 225.705C129.229 209.899 109.243 164.286 125.049 123.826C131.174 108.148 142.167 94.849 156.411 85.8828L149.404 74.793C106.526 101.806 93.6643 158.463 120.677 201.341C131.138 217.947 146.649 230.761 164.931 237.902C181.114 244.102 191.799 259.636 191.804 276.965H204.912C204.933 254.229 190.921 233.838 169.69 225.705Z" fill="#E5E7EA"/>
<path d="M368.768 244.194H322.889V257.303H368.768V244.194Z" fill="#E5E7EA"/>
<path d="M320.531 278.48L312.14 288.551L351.468 321.317L359.859 311.246L320.531 278.48Z" fill="#E5E7EA"/>
<path d="M296.672 296.628H283.563V342.508H296.672V296.628Z" fill="#E5E7EA"/>
<path d="M59.1231 100.193L6.69275 113.299L9.86998 126.009L62.3003 112.903L59.1231 100.193Z" fill="#E5E7EA"/>
<path d="M25.1951 35.6875L17.5802 46.3485L63.4564 79.1164L71.0712 68.4553L25.1951 35.6875Z" fill="#E5E7EA"/>
<path d="M86.4373 0.0546875L73.7378 3.30166L87.1429 55.7316L99.8424 52.4846L86.4373 0.0546875Z" fill="#E5E7EA"/>
</svg>
