<svg width="84" height="60" viewBox="0 0 84 60" fill="none" xmlns="http://www.w3.org/2000/svg">
<path d="M5.43624 36.7114C4.69799 36.7114 3.95973 36.8456 3.28859 37.047C2.95302 37.1812 2.81879 37.5168 2.95302 37.7852C3.48993 38.8591 4.16107 39.7315 4.89933 40.4698C5.83893 41.2752 6.84564 41.8792 7.85235 42.2819C8.45637 42.4832 9.12751 42.5503 9.73154 42.5503C11.0067 42.5503 12.1476 42.1477 13.2215 41.4765C13.4899 41.2752 13.557 40.9396 13.3557 40.6711C12.7517 40 12.1477 39.396 11.4765 38.8591C10.6711 38.1879 9.66443 37.7852 8.79195 37.3826C7.71812 36.9128 6.57718 36.7114 5.43624 36.7114Z" fill="#81A4FF"/>
<path d="M17.9866 30.6711C17.9195 30.6711 17.7852 30.6711 17.7181 30.7383C16.0403 31.6107 14.7651 32.8859 14.1611 34.4966C13.7584 35.4362 13.7584 36.3758 13.8255 37.3154C13.8926 38.1208 14.1611 38.9262 14.6309 39.5973C14.698 39.7315 14.8993 39.8658 15.0336 39.8658C15.1678 39.8658 15.302 39.7987 15.3691 39.7315C16.7785 38.4564 17.651 36.7785 18.1879 35.2349C18.4564 34.3624 18.6577 33.4899 18.6577 32.7517C18.6577 32.1477 18.6577 31.5436 18.4564 31.0067C18.3893 30.8054 18.1879 30.6711 17.9866 30.6711Z" fill="#81A4FF"/>
<path d="M3.48993 32.7517C4.63087 33.4899 5.83893 33.8255 7.04698 33.8255C7.65101 33.8255 8.25503 33.7584 8.92617 33.557C9.26174 33.4899 9.39597 33.0872 9.26174 32.8188C8.45637 31.0067 7.24832 29.4631 5.7047 28.3221C4.2953 27.1812 2.55034 26.443 0.671141 26.443C0.604027 26.443 0.604027 26.443 0.536913 26.443C0.201342 26.443 0 26.7114 0 27.047C0.201342 28.1879 0.536913 29.2618 1.14094 30.2013C1.87919 31.2752 2.61745 32.1477 3.48993 32.7517Z" fill="#81A4FF"/>
<path d="M16.443 26.7114C16.5772 26.1074 16.7114 25.5705 16.7114 24.9664C16.7114 24.698 16.443 24.4966 16.1745 24.4966C16.1074 24.4966 16.1074 24.4966 16.0403 24.4966C14.2282 24.8322 12.6174 25.7047 11.6107 27.1141C10.604 28.4564 10.2013 30.4027 10.7383 32.2148C10.8054 32.4161 11.0067 32.5503 11.2081 32.5503C11.2752 32.5503 11.3423 32.5503 11.4765 32.4832C13.1544 31.6779 14.4966 30.3356 15.3691 28.9933C15.8389 28.255 16.2416 27.4497 16.443 26.7114Z" fill="#81A4FF"/>
<path d="M1.94631 22.2819C3.28859 23.8255 4.96644 24.6309 6.84564 24.6309H6.91275C7.24832 24.6309 7.51678 24.3624 7.44966 24.0268C7.31544 23.1544 7.04698 22.2819 6.77852 21.4765C6.44295 20.4698 5.90604 19.5302 5.2349 18.7248C4.16107 17.1812 2.61745 15.906 0.80537 15.4362C0.738256 15.4362 0.738256 15.4362 0.671142 15.4362C0.402685 15.4362 0.201343 15.6376 0.134229 15.906C0.0671149 16.3758 0.067115 16.9128 0.067115 17.3826C0.067115 18.0537 0.134229 18.6577 0.335571 19.2617C0.738255 20.3356 1.27517 21.4094 1.94631 22.2819Z" fill="#81A4FF"/>
<path d="M8.99329 23.8255C8.99329 24.094 9.19463 24.3624 9.5302 24.3624H9.59732C11.4765 24.0268 13.0872 23.1544 14.2953 22.1477C14.9664 21.5436 15.5705 20.9396 15.9732 20.2685C16.1745 19.9329 16.3758 19.5973 16.5101 19.2617C16.5772 19.0604 16.6443 18.9262 16.7114 18.7248C16.7785 18.3893 16.5772 18.1208 16.2416 18.0537C15.906 17.9866 15.6376 17.9866 15.302 17.9866C13.8255 17.9866 12.4161 18.3893 11.2081 19.2617C10.4698 19.8658 9.93288 20.604 9.46309 21.4765C9.12752 22.1477 9.0604 22.953 8.99329 23.8255Z" fill="#81A4FF"/>
<path d="M7.31543 15.3691H7.44966C7.71812 15.3691 7.91946 15.1678 7.98658 14.8993C8.1208 14.0268 8.1208 13.0872 8.05369 12.2148C7.98658 11.1409 7.71812 10.1342 7.31543 9.12752C6.71141 7.38255 5.57047 5.7047 3.95973 4.69799C3.95973 4.69799 3.89262 4.63087 3.75839 4.63087C3.55705 4.63087 3.3557 4.7651 3.28859 4.96645C2.34899 7.31544 2.41611 9.86577 3.22148 11.6779C4.09396 13.557 5.57047 14.8322 7.31543 15.3691Z" fill="#81A4FF"/>
<path d="M10.0671 15.906C10.4698 15.9732 10.8054 15.9732 11.1409 15.9732C12.6174 15.9732 14.0268 15.6376 15.1678 15.1007C16.6443 14.4966 17.7181 13.6242 18.4564 12.4832C18.6577 12.2148 18.5235 11.8792 18.1879 11.745C17.1812 11.3423 16.1745 11.0738 15.1678 11.0738C14.4295 11.0738 13.6913 11.2081 13.0201 11.4765C12.1476 11.8121 11.4094 12.4161 10.7383 13.0872C10.2013 13.6913 9.86577 14.4295 9.59731 15.2349C9.5302 15.5705 9.73154 15.906 10.0671 15.906Z" fill="#81A4FF"/>
<path d="M11.0738 8.92618C11.1409 8.92618 11.2081 8.92618 11.3423 8.85907C13.0201 8.05369 14.3624 6.91275 15.2349 5.57047C15.7718 4.83222 16.1074 3.89262 16.3758 3.02014C16.6443 2.28188 16.7785 1.4094 16.7785 0.536918C16.7785 0.268461 16.5772 5.03748e-06 16.2416 5.03748e-06H16.1745C15.3691 0.134234 14.5638 0.402689 13.8255 0.805375C12.8188 1.27517 12.1476 2.08054 11.4765 2.95302C10.4027 4.56376 10 6.6443 10.5369 8.59061C10.604 8.79195 10.8054 8.92618 11.0738 8.92618Z" fill="#81A4FF"/>
<path d="M26.6443 59.6644C27.1141 59.7987 27.5168 59.9329 27.9866 59.9329C28.255 59.9329 28.5906 60 28.8591 60C29.1946 60 29.5302 60 29.8658 59.9329C30.4698 59.8658 31.0738 59.7987 31.6107 59.5973C32.1476 59.396 32.6846 59.1275 33.1544 58.8591C34.094 58.255 34.8322 57.5168 35.302 56.6443C35.7047 55.906 35.9731 55.1007 36.1074 54.2282C36.1745 53.8926 35.906 53.6242 35.5705 53.6242C35.5033 53.6242 35.3691 53.6242 35.302 53.6242C34.5638 53.6242 33.7584 53.6913 33.0872 53.8926C32.0805 54.1611 31.1409 54.4295 30.2013 54.9664C29.7315 55.2349 29.3289 55.5034 28.9262 55.8389C28.5235 56.1745 28.1208 56.5101 27.7852 56.8456C27.1812 57.4497 26.7114 58.1879 26.3758 58.9933C26.1745 59.1946 26.3087 59.5302 26.6443 59.6644Z" fill="#81A4FF"/>
<path d="M36.3087 51.3423C36.3087 50.4698 36.1745 49.5973 35.9731 48.8591C35.7047 47.8523 35.3691 46.9799 34.8993 46.1745C34.698 45.7718 34.4295 45.4362 34.1611 45.1007C33.8926 44.7651 33.6242 44.4295 33.3557 44.1611C33.0872 43.8926 32.7517 43.6242 32.4161 43.4899C32.2819 43.4228 32.0805 43.2886 31.9463 43.2215C31.8792 43.1544 31.8121 43.1544 31.745 43.1544C31.5436 43.1544 31.3423 43.2886 31.2752 43.557C31.0738 44.4295 30.9396 45.2349 30.9396 46.1074C30.9396 46.5772 31.0067 47.1141 31.1409 47.5839C31.2752 48.0537 31.4094 48.4564 31.6778 48.9262C32.1476 49.7315 32.7517 50.5369 33.557 51.0738C34.2282 51.4765 34.9664 51.8121 35.7047 51.9463H35.7718C36.0403 51.8792 36.3087 51.6778 36.3087 51.3423Z" fill="#81A4FF"/>
<path d="M19.9329 56.0403C20.4027 56.1745 20.8725 56.1745 21.3423 56.1745C22.0805 56.1745 22.7517 56.0403 23.3557 55.906C25.2349 55.4362 26.7114 54.0268 27.5168 52.2819C27.651 52.0134 27.4497 51.6107 27.1812 51.5436C26.1074 51.208 25.0336 51.0738 23.9597 51.0738C23.1544 51.0738 22.349 51.1409 21.6107 51.3423C19.7987 51.8121 18.0537 52.6174 16.8456 54.094C16.6443 54.3624 16.7114 54.7651 16.9799 54.8993C17.8523 55.4362 18.9262 55.7718 19.9329 56.0403Z" fill="#81A4FF"/>
<path d="M27.651 49.9329C27.7181 50 27.7852 50 27.9195 50C28.1208 50 28.3221 49.8658 28.3893 49.5973C28.9262 47.7181 28.7919 45.8389 28.4564 44.2282C28.255 43.3557 27.9195 42.6174 27.5168 41.8792C27.2483 41.3423 26.8456 40.9396 26.443 40.5369C26.3087 40.4698 26.2416 40.4027 26.1074 40.4027C25.9732 40.4027 25.7718 40.4698 25.7047 40.6711C24.698 42.349 24.2953 44.1611 24.6309 45.8389C24.8993 47.5839 26.0403 49.1275 27.651 49.9329Z" fill="#81A4FF"/>
<path d="M19.5973 47.9195C19.7987 47.651 19.7315 47.3154 19.4631 47.1141C18.7248 46.6443 17.9866 46.2416 17.1812 45.906C16.7114 45.7047 16.1745 45.5705 15.7047 45.5034C15.2349 45.3691 14.698 45.302 14.2282 45.2349C13.9597 45.2349 13.6913 45.2349 13.4228 45.2349C11.8121 45.2349 10.2013 45.6376 8.85906 46.5772C8.5906 46.7785 8.52349 47.1141 8.79194 47.3825C9.59731 48.255 10.4698 48.9262 11.3423 49.396C12.4161 49.9329 13.6242 50.2013 14.6309 50.2685H14.8322C15.8389 50.2685 16.7785 50 17.651 49.5973C18.3893 49.0604 19.0604 48.5235 19.5973 47.9195Z" fill="#81A4FF"/>
<path d="M18.5906 42.4161C18.6577 42.8859 18.8591 43.3557 18.9933 43.7584C19.3289 44.4966 19.7315 45.1678 20.3356 45.7047C20.4027 45.7718 20.5369 45.8389 20.6711 45.8389C20.8725 45.8389 21.0067 45.7718 21.1409 45.5705C21.6107 44.8322 21.9463 44.0268 22.1476 43.2886C22.4161 42.349 22.5503 41.4094 22.6175 40.4698C22.6846 39.5302 22.5503 38.7248 22.349 37.9195C22.2148 37.3154 22.0134 36.7785 21.6779 36.3087C21.6107 36.1745 21.4094 36.1074 21.2752 36.1074C21.1409 36.1074 21.0067 36.1745 20.8725 36.2416C19.4631 37.5839 18.6577 39.1275 18.4564 40.9396C18.5235 41.4094 18.5235 41.9463 18.5906 42.4161Z" fill="#81A4FF"/>
<path d="M78.7919 40.4698C79.5302 39.7315 80.2013 38.792 80.7383 37.7852C80.8725 37.5168 80.7383 37.1812 80.4027 37.047C79.7315 36.8456 78.9933 36.7114 78.255 36.7114C77.1141 36.7114 75.9732 36.9799 74.9664 37.3826C74.0268 37.7852 73.0201 38.255 72.2819 38.8591C71.6107 39.396 71.0067 40 70.4027 40.6711C70.2013 40.9396 70.2685 41.2752 70.5369 41.4765C71.6107 42.1476 72.7517 42.5503 74.0268 42.5503C74.6309 42.5503 75.302 42.4832 75.906 42.2819C76.9127 41.8792 77.9195 41.2752 78.7919 40.4698Z" fill="#81A4FF"/>
<path d="M65.1007 32.7517C65.1007 33.557 65.2349 34.3624 65.5705 35.2349C66.1074 36.7785 66.9799 38.4564 68.3893 39.7315C68.5235 39.7987 68.5906 39.8658 68.7248 39.8658C68.859 39.8658 69.0604 39.7987 69.1275 39.5973C69.5973 38.8591 69.8658 38.1208 69.9329 37.3154C70.0671 36.3087 70 35.3691 69.5973 34.4966C68.9933 32.8188 67.7181 31.5436 66.0403 30.7383C65.9731 30.6711 65.8389 30.6711 65.7718 30.6711C65.5704 30.6711 65.3691 30.8054 65.302 31.0067C65.1007 31.5436 65.0336 32.1477 65.1007 32.7517Z" fill="#81A4FF"/>
<path d="M83.6242 27.047C83.6913 26.7114 83.4228 26.443 83.0872 26.443C83.0201 26.443 83.0201 26.443 82.953 26.443C81.1409 26.443 79.3288 27.2483 77.9195 28.3221C76.3758 29.4631 75.1678 31.0067 74.3624 32.8188C74.2282 33.0872 74.3624 33.4899 74.698 33.557C75.302 33.7584 75.906 33.8255 76.5772 33.8255C77.7852 33.8255 78.9933 33.4899 80.1342 32.7517C81.0067 32.1477 81.8121 31.2752 82.4832 30.2013C83.0872 29.2617 83.4228 28.1879 83.6242 27.047Z" fill="#81A4FF"/>
<path d="M72.4832 32.5503C72.6846 32.5503 72.8859 32.4161 72.953 32.2148C73.4899 30.4027 73.0201 28.5235 72.0805 27.1141C71.0067 25.7047 69.4631 24.8322 67.651 24.4966C67.5839 24.4966 67.5839 24.4966 67.5168 24.4966C67.2483 24.4966 66.9799 24.698 66.9799 24.9664C66.9799 25.5705 67.1141 26.1074 67.2483 26.7114C67.4497 27.4497 67.8523 28.255 68.3893 28.9933C69.2617 30.3356 70.5369 31.6778 72.2819 32.4832C72.349 32.5503 72.4161 32.5503 72.4832 32.5503Z" fill="#81A4FF"/>
<path d="M78.5235 18.5906C77.9195 19.4631 77.3825 20.4027 76.9799 21.3423C76.7114 22.1477 76.4429 23.0201 76.3087 23.8926C76.2416 24.2282 76.5101 24.4966 76.8456 24.4966H76.9127C78.7919 24.4966 80.4698 23.6913 81.8121 22.1477C82.4832 21.2752 83.0201 20.2685 83.3557 18.9933C83.557 18.3893 83.6242 17.7181 83.6242 17.1141C83.6242 16.6443 83.6242 16.1745 83.557 15.6376C83.557 15.3691 83.2886 15.1678 83.0201 15.1678C82.953 15.1678 82.953 15.1678 82.8859 15.1678C81.0738 15.8389 79.5302 17.1141 78.5235 18.5906Z" fill="#81A4FF"/>
<path d="M74.698 23.8255C74.698 22.953 74.5638 22.1477 74.2282 21.4094C73.8255 20.5369 73.2215 19.7315 72.4832 19.1946C71.3423 18.3221 69.9329 17.9195 68.3893 17.9195C68.0537 17.9195 67.7852 17.9195 67.4497 17.9866C67.1141 18.0537 66.8456 18.3221 66.9799 18.6577C67.047 18.8591 67.1141 19.0604 67.1812 19.1946C67.3154 19.5302 67.5168 19.8658 67.7181 20.2013C68.1208 20.8725 68.7248 21.4765 69.396 22.0805C70.604 23.0872 72.2148 24.0268 74.094 24.2953H74.1611C74.4966 24.2953 74.698 24.094 74.698 23.8255Z" fill="#81A4FF"/>
<path d="M76.2416 15.3691H76.3758C78.1879 14.8322 79.5973 13.557 80.4698 11.745C81.2752 9.86577 81.3423 7.38255 80.4027 5.03356C80.3356 4.83222 80.1342 4.69799 79.9329 4.69799C79.8658 4.69799 79.7315 4.69799 79.6644 4.7651C78.0537 5.77181 76.9127 7.44966 76.3087 9.19463C75.906 10.2013 75.6376 11.2752 75.5705 12.2819C75.5033 13.1544 75.5033 14.0268 75.6376 14.9664C75.7047 15.2349 75.9731 15.3691 76.2416 15.3691Z" fill="#81A4FF"/>
<path d="M65.302 12.4832C65.9731 13.6242 67.1141 14.4966 68.5906 15.1007C69.7315 15.6376 71.1409 15.9732 72.6174 15.9732C72.953 15.9732 73.3557 15.9732 73.6913 15.906C74.0268 15.8389 74.2282 15.5705 74.1611 15.2349C73.8926 14.4295 73.557 13.6913 73.0201 13.0873C72.349 12.349 71.6107 11.8121 70.7382 11.4765C70.0671 11.2081 69.3288 11.0738 68.5906 11.0738C67.5839 11.0738 66.5772 11.2752 65.5705 11.745C65.2349 11.8792 65.1678 12.2148 65.302 12.4832Z" fill="#81A4FF"/>
<path d="M72.4161 8.85906C72.4832 8.92617 72.5503 8.92617 72.6846 8.92617C72.8859 8.92617 73.0872 8.79195 73.1544 8.5906C73.6913 6.71141 73.2886 4.63087 72.2148 2.95302C71.6107 2.08054 70.8725 1.27517 69.9329 0.80537C69.1946 0.402684 68.3893 0.134229 67.5839 0H67.5168C67.2483 0 66.9799 0.268456 66.9799 0.536911C66.9799 1.40939 67.1141 2.28188 67.3825 3.02013C67.7181 3.89262 67.9866 4.83221 68.5235 5.57047C69.4631 6.91275 70.7383 8.05369 72.4161 8.85906Z" fill="#81A4FF"/>
<path d="M50.604 58.7919C51.0738 59.0604 51.5436 59.3289 52.1477 59.5302C52.6846 59.7315 53.2886 59.7987 53.8926 59.8658C54.2282 59.8658 54.5638 59.9329 54.8993 59.9329C55.1678 59.9329 55.5034 59.9329 55.7718 59.8658C56.2416 59.7987 56.6443 59.7315 57.1141 59.5973C57.4497 59.5302 57.5839 59.1946 57.5168 58.8591C57.1812 58.0537 56.7114 57.3154 56.1074 56.7114C55.7718 56.3087 55.3691 55.9732 54.9664 55.7047C54.5638 55.3691 54.094 55.1007 53.6242 54.8322C52.6846 54.2953 51.745 54.0268 50.7383 53.7584C50 53.557 49.2617 53.4899 48.5235 53.4899C48.4564 53.4899 48.3221 53.4899 48.255 53.4899C47.9195 53.4899 47.651 53.7584 47.7181 54.094C47.8523 54.9664 48.1208 55.7718 48.5235 56.5101C48.9262 57.4497 49.6644 58.1879 50.604 58.7919Z" fill="#81A4FF"/>
<path d="M48.0537 51.8792C48.8591 51.745 49.5973 51.4094 50.2013 51.0067C51.0067 50.4698 51.6107 49.6644 52.0805 48.8591C52.2819 48.4564 52.4832 47.9866 52.6174 47.5168C52.7517 47.047 52.8188 46.5101 52.8188 46.0403C52.8188 45.2349 52.7517 44.3624 52.4832 43.4899C52.4161 43.2886 52.2148 43.0872 52.0134 43.0872C51.9463 43.0872 51.8792 43.0872 51.8121 43.1544C51.6779 43.2215 51.4765 43.3557 51.3423 43.4228C51.0067 43.6242 50.7383 43.8255 50.4027 44.094C50.1342 44.3624 49.8658 44.698 49.5973 45.0336C49.3289 45.3691 49.0604 45.7047 48.8591 46.1074C48.3893 46.9128 48.0537 47.7852 47.7852 48.792C47.5839 49.5973 47.4497 50.4027 47.4497 51.2752C47.4497 51.5436 47.7181 51.8121 47.9866 51.8121C47.9866 51.8792 48.0537 51.8792 48.0537 51.8792Z" fill="#81A4FF"/>
<path d="M60.4027 55.906C61.0067 56.1074 61.745 56.1745 62.4161 56.1745C62.8859 56.1745 63.3557 56.1074 63.8255 56.0403C64.8322 55.8389 65.906 55.5034 66.8456 54.8322C67.1141 54.6309 67.1812 54.2953 66.9799 54.0269C65.7718 52.5503 64.0268 51.6779 62.2148 51.2752C61.4094 51.1409 60.6711 51.0067 59.8658 51.0067C58.7919 51.0067 57.7181 51.1409 56.6443 51.4765C56.3087 51.5436 56.1745 51.9463 56.3087 52.2148C57.047 54.0268 58.4564 55.3691 60.4027 55.906Z" fill="#81A4FF"/>
<path d="M55.8389 50C55.906 50 55.9731 50 56.1074 49.9329C57.7181 49.1275 58.8591 47.5839 59.1946 45.906C59.5973 44.2282 59.1275 42.349 58.1208 40.7383C58.0537 40.604 57.8523 40.4698 57.7181 40.4698C57.5839 40.4698 57.4497 40.5369 57.3825 40.604C56.9799 41.0067 56.5772 41.4094 56.3087 41.9463C55.906 42.6846 55.5705 43.4228 55.3691 44.2953C55.0336 45.906 54.8993 47.7852 55.4362 49.6644C55.3691 49.8658 55.5705 50 55.8389 50Z" fill="#81A4FF"/>
<path d="M69.0604 50.2013C70.1342 50.1342 71.2752 49.9329 72.349 49.3289C73.2215 48.7919 74.1611 48.1879 74.8993 47.3154C75.1007 47.047 75.1007 46.7114 74.8322 46.5101C73.4899 45.5705 71.8792 45.1678 70.2685 45.1678C70 45.1678 69.7315 45.1678 69.4631 45.1678C68.9262 45.2349 68.4564 45.302 67.9866 45.4362C67.4497 45.5034 66.9799 45.6376 66.5101 45.8389C65.7047 46.1074 64.9664 46.5772 64.2282 47.047C63.9597 47.2483 63.8926 47.5839 64.094 47.8523C64.6309 48.5235 65.302 49.0604 66.0403 49.4631C66.9128 49.9329 67.8524 50.1342 68.8591 50.1342C68.9262 50.2013 68.9933 50.2013 69.0604 50.2013Z" fill="#81A4FF"/>
<path d="M62.4161 36.1745C62.2819 36.1745 62.0805 36.2416 62.0134 36.3758C61.6778 36.8456 61.4765 37.3826 61.3423 37.9866C61.1409 38.792 61.0067 39.5973 61.0738 40.5369C61.1409 41.4765 61.2752 42.4161 61.5436 43.3557C61.745 44.1611 62.0805 44.8993 62.5503 45.6376C62.6174 45.7718 62.8188 45.906 63.0201 45.906C63.1544 45.906 63.2886 45.8389 63.3557 45.7718C63.9597 45.2349 64.4295 44.4966 64.698 43.8255C64.8993 43.3557 65.0335 42.8859 65.1007 42.4832C65.1678 42.0134 65.1678 41.4765 65.1678 41.0067C65.0335 39.2618 64.1611 37.651 62.7517 36.3087C62.6174 36.1745 62.4832 36.1745 62.4161 36.1745Z" fill="#81A4FF"/>
<path d="M42.1682 29.8036V12.0836H38.1115V8.81573H45.9995V29.8036H42.1682Z" fill="white"/>
</svg>
