<svg width="54" height="60" viewBox="0 0 54 60" fill="none" xmlns="http://www.w3.org/2000/svg">
<path d="M52.6641 18.0023C52.6898 18.0281 52.7121 18.0539 52.7355 18.0809C48.1793 17.9246 43.6234 17.8074 39.068 17.7293C38.3556 17.7131 37.6772 17.4218 37.1747 16.9165C36.6723 16.4113 36.3849 15.7312 36.3727 15.0188C36.3164 10.3406 36.2332 5.6625 36.123 0.984375C36.0891 0.9375 44.898 7.87617 52.6641 18.0023ZM1.46367 14.0062V13.9816L1.43672 13.9617C1.88672 10.8457 3.45703 7.83398 5.79141 5.46445C8.12578 3.09492 11.1176 1.4918 14.2289 1.02422L14.3238 1.01016C18.1266 0.46875 18.7383 0.0574219 26.707 0C28.875 0 30.5543 0.0421875 31.9219 0.108984C32.2734 0.125391 32.6086 0.144141 32.925 0.165234C33.0031 5.10273 33.0609 10.0406 33.0984 14.9789C33.1136 16.5704 33.7508 18.0928 34.8738 19.2206C35.9968 20.3484 37.5164 20.9921 39.1078 21.0141C43.8914 21.0703 48.675 21.1609 53.4586 21.2859C53.6285 23.7891 53.7281 26.5898 53.7293 30.0223C53.7187 37.0629 53.332 41.4562 52.6746 46.0395C52.2246 49.1555 50.6543 52.1684 48.3199 54.5379C45.9855 56.9074 42.9937 58.5094 39.8824 58.977L39.7875 58.991C35.9906 59.5312 35.3789 59.9437 27.4113 60C19.4426 59.966 18.1535 59.5312 14.3531 58.991L14.257 58.977C11.1457 58.5082 8.15625 56.9039 5.81953 54.5379C3.48281 52.1719 1.91484 49.1555 1.46484 46.0395C0.812109 41.4551 0.425391 37.0629 0.410156 30.0223C0.425391 22.9828 0.810937 18.5906 1.46367 14.0062ZM14.2734 44.475C19.1391 44.5758 24.0043 44.6187 28.8691 44.6039C29.6159 44.5968 30.3298 44.2958 30.8562 43.7661C31.3827 43.2364 31.6792 42.5206 31.6816 41.7738C31.6847 41.4048 31.6146 41.0388 31.4752 40.6971C31.3359 40.3554 31.1301 40.0448 30.8698 39.7832C30.6095 39.5216 30.2999 39.3142 29.9589 39.1731C29.6178 39.0321 29.2522 38.9601 28.8832 38.9613C23.9902 38.9707 19.0973 38.9445 14.2043 38.8828C13.8404 38.8736 13.4783 38.938 13.1399 39.0722C12.8015 39.2064 12.4937 39.4076 12.2349 39.6637C11.9762 39.9198 11.7719 40.2256 11.6343 40.5626C11.4966 40.8996 11.4285 41.261 11.434 41.625C11.4534 42.3732 11.7584 43.0855 12.2864 43.6159C12.8144 44.1463 13.5254 44.4545 14.2734 44.4773V44.475ZM14.1562 32.5219C22.7641 32.5539 31.3715 32.5539 39.9785 32.5219C40.7195 32.5219 41.4301 32.2275 41.954 31.7036C42.4779 31.1797 42.7723 30.4691 42.7723 29.7281C42.7723 28.9872 42.4779 28.2766 41.954 27.7526C41.4301 27.2287 40.7195 26.9344 39.9785 26.9344C31.3723 26.8969 22.7656 26.8969 14.1586 26.9344C13.4176 26.9344 12.707 27.2287 12.1831 27.7526C11.6592 28.2766 11.3648 28.9872 11.3648 29.7281C11.3648 30.4691 11.6592 31.1797 12.1831 31.7036C12.707 32.2275 13.4176 32.5219 14.1586 32.5219H14.1562Z" fill="url(#paint0_linear_65_3601)"/>
<defs>
<linearGradient id="paint0_linear_65_3601" x1="0.416016" y1="30" x2="53.7269" y2="30" gradientUnits="userSpaceOnUse">
<stop stop-color="#0143EB"/>
<stop offset="0.6" stop-color="#3E73F9"/>
<stop offset="1" stop-color="#8CACFF"/>
</linearGradient>
</defs>
</svg>
