<svg width="60" height="60" viewBox="0 0 60 60" fill="none" xmlns="http://www.w3.org/2000/svg">
<path d="M57.5064 24.0421C56.2603 22.8366 55.0103 21.6222 53.7564 20.3987C53.7228 18.7058 53.679 17.012 53.6251 15.3175C53.5536 13.0499 52.5704 10.8866 50.8923 9.20615C49.2142 7.52568 47.0474 6.55186 44.7774 6.48037C43.0806 6.42803 41.3837 6.38428 39.6868 6.34912C38.4634 5.10459 37.2481 3.86123 36.0411 2.61904C34.4204 0.951466 32.3122 0.0198253 30.0704 0.0209972C27.8286 0.0221691 25.7204 0.958497 24.1021 2.61787C22.8942 3.8624 21.6774 5.10889 20.4517 6.35733C18.7556 6.3917 17.0595 6.43545 15.3634 6.48858C10.6899 6.64795 6.66924 10.664 6.50986 15.3245C6.45596 17.019 6.41182 18.7128 6.37744 20.4058C5.12744 21.6284 3.8794 22.8425 2.6333 24.048C0.971583 25.664 0.0364269 27.7733 0.0375988 29.9999C0.0387706 32.2265 0.965724 34.3358 2.63447 35.9577C3.87979 37.1624 5.12744 38.3753 6.37744 39.5964C6.4126 41.2909 6.45674 42.9858 6.50986 44.6812C6.58018 46.9522 7.56455 49.1097 9.24033 50.7925C10.9161 52.4753 13.0899 53.4468 15.3634 53.5171C17.0603 53.571 18.7571 53.6151 20.454 53.6495C21.6774 54.894 22.8923 56.137 24.0985 57.3784C25.7192 59.0448 27.8298 59.9765 30.0751 59.9753C32.3204 59.9741 34.4251 59.046 36.0517 57.3796C37.2587 56.1358 38.4743 54.8905 39.6985 53.6437C41.3946 53.6085 43.0907 53.5644 44.7868 53.5112C49.4591 53.353 53.481 49.337 53.6415 44.6753C53.6946 42.9823 53.7384 41.2894 53.7728 39.5964C55.0228 38.3737 56.2708 37.1593 57.5169 35.953C59.1798 34.3382 60.1138 32.2312 60.1138 29.9964C60.1138 27.7616 59.1716 25.664 57.5064 24.0421ZM44.9896 26.1995C39.9294 31.4577 34.7884 36.8331 29.7329 42.1651C29.3219 42.6005 28.8264 42.9475 28.2768 43.1849C27.7271 43.4222 27.1348 43.545 26.536 43.5456H26.5161C25.9188 43.541 25.3285 43.4171 24.7797 43.1812C24.231 42.9454 23.7348 42.6023 23.3204 42.1722C20.6181 39.3815 17.9067 36.6003 15.1864 33.8284C14.7749 33.4148 14.4503 32.9232 14.2315 32.3823C14.0128 31.8415 13.9044 31.2624 13.9127 30.679C13.921 30.0957 14.0458 29.5198 14.2799 28.9854C14.5139 28.451 14.8524 27.9688 15.2755 27.5671C16.1278 26.7435 17.2708 26.2898 18.4559 26.3047C19.6411 26.3196 20.7723 26.802 21.6036 27.6468C23.2192 29.303 24.8376 30.9644 26.4587 32.6308C30.4724 28.4249 34.506 24.1933 38.4763 20.0284C40.1614 18.2554 42.9728 18.2261 44.7798 19.937C46.5868 21.648 46.6876 24.4358 44.9896 26.1995Z" fill="url(#paint0_linear_65_3587)"/>
<defs>
<linearGradient id="paint0_linear_65_3587" x1="0.0375988" y1="29.9999" x2="60.1056" y2="29.9999" gradientUnits="userSpaceOnUse">
<stop stop-color="#0143EB"/>
<stop offset="0.6" stop-color="#3E73F9"/>
<stop offset="1" stop-color="#8CACFF"/>
</linearGradient>
</defs>
</svg>
