<svg width="51" height="51" viewBox="0 0 51 51" fill="none" xmlns="http://www.w3.org/2000/svg">
<path d="M13.1862 47.2334C14.5048 45.9148 15.2457 44.1263 15.2457 42.2614C15.2457 40.3966 14.5048 38.6081 13.1862 37.2894C12.5332 36.6365 11.7581 36.1186 10.905 35.7652C10.0519 35.4119 9.13757 35.23 8.21418 35.23C6.34932 35.23 4.56084 35.9708 3.24219 37.2894C1.28524 39.2449 0.51544 42.2755 0.270637 45.0214C0.131593 46.5745 0.140482 48.1374 0.297182 49.6888C0.314142 49.8111 0.370079 49.9246 0.456688 50.0126C0.543296 50.1005 0.655957 50.1582 0.777939 50.177H0.795635C0.953429 50.177 3.20089 50.2286 3.89253 48.0401C4.01719 47.6312 4.19996 47.2423 4.43523 46.8854C4.53129 46.7425 4.6731 46.6364 4.83737 46.5846C5.00165 46.5329 5.17864 46.5385 5.3393 46.6006C5.49997 46.6626 5.63476 46.7775 5.72157 46.9262C5.80838 47.075 5.84204 47.2488 5.81704 47.4193C5.70462 48.2523 5.87716 49.0989 6.30664 49.8216C6.35405 49.9017 6.42429 49.9658 6.50836 50.0057C6.59243 50.0457 6.68651 50.0596 6.77855 50.0457C9.12777 49.6874 11.5375 48.8822 13.1862 47.2334Z" fill="url(#paint0_linear_65_3616)"/>
<path d="M50.253 4.55568C50.1055 2.11356 48.3624 0.368968 45.9218 0.222971C37.6236 -0.271058 28.3859 3.24466 21.179 10.4531L19.2619 12.3702C18.5737 13.0584 17.9155 13.7687 17.2872 14.5012H11.2262C10.5985 14.5334 9.98894 14.7224 9.45312 15.0508C8.9173 15.3793 8.4723 15.8367 8.15876 16.3814L4.58996 23.5131C4.49447 23.7689 4.4277 24.0345 4.39087 24.305C4.39623 24.763 4.58051 25.2006 4.90432 25.5244C5.22812 25.8482 5.66576 26.0325 6.12366 26.0378H10.6363C10.0464 28.0036 10.4416 29.937 11.6907 31.1861L19.2973 38.7926C20.5464 40.0417 22.4797 40.431 24.4455 39.8471V44.3494C24.4509 44.8073 24.6351 45.2449 24.959 45.5687C25.2828 45.8925 25.7204 46.0768 26.1783 46.0822C26.4486 46.0451 26.7142 45.9789 26.9702 45.8845L34.0842 42.3231C34.6289 42.0091 35.0862 41.5638 35.4146 41.0278C35.7431 40.4918 35.9321 39.882 35.9645 39.2542V33.1946C36.694 32.5693 37.4063 31.9126 38.1014 31.2244L40.0185 29.3073C47.2313 22.09 50.7485 12.848 50.253 4.55568ZM41.9518 18.6893C40.9469 19.6945 39.6664 20.379 38.2724 20.6563C36.8783 20.9337 35.4334 20.7914 34.1202 20.2476C32.807 19.7037 31.6846 18.7826 30.8949 17.6008C30.1052 16.419 29.6837 15.0296 29.6837 13.6082C29.6837 12.1869 30.1052 10.7974 30.8949 9.61563C31.6846 8.43383 32.807 7.51275 34.1202 6.96886C35.4334 6.42498 36.8783 6.28272 38.2724 6.56009C39.6664 6.83745 40.9469 7.52197 41.9518 8.52709C42.6192 9.19428 43.1486 9.98642 43.5098 10.8582C43.871 11.7301 44.0569 12.6645 44.0569 13.6082C44.0569 14.5519 43.871 15.4863 43.5098 16.3582C43.1486 17.23 42.6192 18.0221 41.9518 18.6893Z" fill="url(#paint1_linear_65_3616)"/>
<defs>
<linearGradient id="paint0_linear_65_3616" x1="13.5039" y1="45.4593" x2="5.00212" y2="36.8865" gradientUnits="userSpaceOnUse">
<stop stop-color="#0143EB"/>
<stop offset="0.52" stop-color="#3E73F9"/>
<stop offset="1" stop-color="#8CACFF"/>
</linearGradient>
<linearGradient id="paint1_linear_65_3616" x1="44.9942" y1="31.5931" x2="18.8829" y2="5.4818" gradientUnits="userSpaceOnUse">
<stop stop-color="#0143EB"/>
<stop offset="0.52" stop-color="#3E73F9"/>
<stop offset="1" stop-color="#8CACFF"/>
</linearGradient>
</defs>
</svg>
