<svg width="56" height="102" viewBox="0 0 56 102" fill="none" xmlns="http://www.w3.org/2000/svg">
<path d="M20.5174 63.1886C19.9456 74.1833 16.0469 84.9011 9.56835 93.7553C17.6398 90.4437 25.7916 87.3461 34.0197 84.4519C36.5649 83.5572 38.0501 87.48 35.4942 88.3786C24.5069 92.248 13.6454 96.4851 2.94602 101.089C1.11642 101.873 -0.919317 99.2804 0.576901 97.803C10.0663 88.4164 15.6992 75.8144 16.3823 62.4828C16.5162 59.7833 20.6593 60.5106 20.5174 63.1886Z" fill="url(#paint0_linear_65_3751)"/>
<path d="M55.5393 1.92526C56.0213 24.5371 48.7084 46.5478 36.9143 65.6629C33.5658 71.0833 29.8868 76.2738 25.8879 81.2302C24.1873 83.3338 20.9343 80.6853 22.6349 78.5817C36.1515 61.8108 46.3708 41.9806 49.9974 20.6217C51.0221 14.5723 51.4903 8.43883 51.3579 2.29895C51.2938 -0.37504 55.4779 -0.774148 55.5393 1.92526Z" fill="url(#paint1_linear_65_3751)"/>
<defs>
<linearGradient id="paint0_linear_65_3751" x1="41.3898" y1="86.6553" x2="14.3574" y2="14.6638" gradientUnits="userSpaceOnUse">
<stop stop-color="#0648EC"/>
<stop offset="1" stop-color="white"/>
</linearGradient>
<linearGradient id="paint1_linear_65_3751" x1="41.3898" y1="86.6553" x2="14.3574" y2="14.6638" gradientUnits="userSpaceOnUse">
<stop stop-color="#0648EC"/>
<stop offset="1" stop-color="white"/>
</linearGradient>
</defs>
</svg>
