<svg width="290" height="290" viewBox="0 0 290 290" fill="none" xmlns="http://www.w3.org/2000/svg">
<path d="M19.7338 289.991C25.8478 289.991 31.5219 287.216 35.2927 282.365L35.8314 281.676H73.3956C76.3673 281.676 79.1595 280.522 81.2514 278.427L104.208 255.496C106.309 253.402 107.467 250.61 107.467 247.638V226.175L108.159 225.638C113.007 221.861 115.79 216.195 115.79 210.082C115.79 208.23 115.53 206.377 115.009 204.596L114.757 203.737L132.776 179.812L133.988 180.197C137.589 181.343 141.341 181.916 145.139 181.916C165.51 181.916 182.084 165.358 182.084 145.004C182.084 124.651 165.51 108.093 145.139 108.093C141.288 108.093 137.472 108.693 133.809 109.874L132.588 110.268L114.731 86.3439L114.991 85.4847C117.28 77.8769 114.479 69.204 108.177 64.3798L107.476 63.8428V42.3709C107.476 39.3994 106.318 36.6158 104.217 34.5125L81.2603 11.5817C79.1595 9.48736 76.3673 8.33277 73.4046 8.33277H35.8404L35.3017 7.64359C31.5219 2.80146 25.8478 0.0179007 19.7428 0.0179007C8.86136 0.0179007 0.0179749 8.86084 0.0179749 19.7266C0.0179749 30.5923 8.87033 39.4352 19.7428 39.4352C26.0274 39.4352 31.9888 36.3921 35.7057 31.2904L36.2444 30.5475H68.8078L85.2556 46.9714V63.44L84.5194 63.977C82.9123 65.1406 81.5027 66.5279 80.3176 68.1031L79.779 68.8192H36.0648L35.5262 68.1031C31.7554 63.091 26.0004 60.2179 19.7517 60.2179C8.87033 60.2179 0.026947 69.0608 0.026947 79.9265C0.026947 90.7923 8.8793 99.6352 19.7517 99.6352C26.0004 99.6352 31.7464 96.7621 35.5262 91.7499L36.0648 91.0339H79.779L80.3176 91.7499C84.0795 96.7442 89.8074 99.6173 96.0292 99.6352H96.927L114.937 123.765L114.246 124.812C112.621 127.283 111.301 129.932 110.322 132.698L109.9 133.888H82.5891C81.2065 133.888 80.0842 135.016 80.0842 136.394C80.0842 137.773 81.2065 138.9 82.5891 138.9H108.652L108.437 140.878C108.042 144.512 108.248 147.314 108.437 149.104L108.643 151.082H38.6505L39.0635 148.952C39.5753 146.293 39.5753 143.698 39.0635 141.022L38.6595 138.891H61.9486C63.3312 138.891 64.4534 137.764 64.4534 136.385C64.4534 135.007 63.3312 133.879 61.9486 133.879H36.0559L35.5172 133.163C31.7464 128.151 25.9915 125.278 19.7428 125.278C8.86136 125.278 0.0179749 134.121 0.0179749 144.987C0.0179749 155.852 8.87033 164.695 19.7428 164.695C25.9915 164.695 31.7374 161.822 35.5172 156.81L36.0559 156.094H109.9L110.322 157.284C111.328 160.113 112.684 162.825 114.344 165.331L115.045 166.387L96.9989 190.347H96.1011C89.8254 190.347 84.0705 193.22 80.2997 198.232L79.761 198.948H36.0469L35.5082 198.232C31.7374 193.22 25.9825 190.347 19.7338 190.347C8.85239 190.347 0.00900269 199.19 0.00900269 210.056C0.00900269 220.921 8.86136 229.764 19.7338 229.764C25.9825 229.764 31.7285 226.891 35.5082 221.879L36.0469 221.163H79.761L80.2997 221.879C81.4848 223.445 82.8943 224.842 84.5014 226.005L85.2376 226.542V243.011L68.7898 259.435H36.2264L35.6878 258.692C31.9709 253.59 26.0094 250.547 19.7248 250.547C8.84338 250.547 0 259.39 0 270.256C0 281.121 8.85236 289.964 19.7248 289.964L19.7338 289.991ZM19.7338 255.586C27.8409 255.586 34.4398 262.173 34.4398 270.282C34.4398 278.391 27.8409 284.97 19.7338 284.97C11.6266 284.97 5.02771 278.382 5.02771 270.282C5.02771 262.182 11.6266 255.586 19.7338 255.586ZM102.458 247.629C102.458 249.258 101.82 250.78 100.671 251.934L77.714 274.865C76.5648 276.02 75.0296 276.655 73.3956 276.655H38.5607L39.0007 274.507C39.7279 270.927 39.4136 268.269 39.1084 266.577L38.7313 264.474H69.8313C70.5046 264.474 71.1331 264.214 71.6089 263.74L89.5201 245.839C89.987 245.374 90.2563 244.729 90.2563 244.067V229.03L92.3841 229.433C93.5423 229.648 94.7633 229.764 96.0023 229.764C97.8248 229.764 99.3421 229.523 100.294 229.326L102.458 228.869V247.629ZM19.7338 195.377C27.8409 195.377 34.4398 201.964 34.4398 210.064C34.4398 218.165 27.8409 224.752 19.7338 224.752C11.6266 224.752 5.02771 218.165 5.02771 210.064C5.02771 201.964 11.6266 195.377 19.7338 195.377ZM96.0741 195.377C104.181 195.377 110.78 201.964 110.78 210.064C110.78 218.165 104.181 224.752 96.0741 224.752C87.9669 224.752 81.3681 218.165 81.3681 210.064C81.3681 201.964 87.9669 195.377 96.0741 195.377ZM76.7444 206.108C76.2326 208.767 76.2326 211.353 76.7444 214.038L77.1484 216.169H38.6505L39.0635 214.038C39.5753 211.38 39.5753 208.785 39.0635 206.108L38.6595 203.978H77.1574L76.7444 206.108ZM119.767 171.784C121.769 173.681 123.969 175.346 126.312 176.733L128.027 177.754L112.28 198.662L110.825 197.015C109.047 195.01 106.92 193.408 104.522 192.262L102.547 191.322L118.304 170.397L119.767 171.775V171.784ZM145.139 113.097C162.745 113.097 177.065 127.399 177.065 144.987C177.065 162.574 162.745 176.877 145.139 176.877C127.533 176.877 113.213 162.574 113.213 144.987C113.213 127.399 127.533 113.097 145.139 113.097ZM19.7248 130.299C27.832 130.299 34.4308 136.887 34.4308 144.987C34.4308 153.087 27.832 159.674 19.7248 159.674C11.6176 159.674 5.01874 153.087 5.01874 144.987C5.01874 136.887 11.6176 130.299 19.7248 130.299ZM127.856 112.318L126.16 113.338C123.834 114.734 121.635 116.417 119.633 118.324L118.16 119.729L102.458 98.6954L104.442 97.7646C106.848 96.6279 108.976 95.0437 110.771 93.0477L112.235 91.4098L127.856 112.336V112.318ZM19.7248 65.2211C27.832 65.2211 34.4308 71.8086 34.4308 79.9086C34.4308 88.0087 27.832 94.5962 19.7248 94.5962C11.6176 94.5962 5.01874 88.0087 5.01874 79.9086C5.01874 71.8086 11.6176 65.2211 19.7248 65.2211ZM96.0652 65.2211C104.172 65.2211 110.771 71.8086 110.771 79.9086C110.771 88.0087 104.172 94.5962 96.0652 94.5962C87.958 94.5962 81.3591 88.0087 81.3591 79.9086C81.3591 71.8086 87.958 65.2211 96.0652 65.2211ZM76.7354 75.9705C76.4751 77.2593 76.3404 78.5929 76.3404 79.9176C76.3404 81.2422 76.4751 82.5669 76.7354 83.8647L77.1753 86.0128H38.6505L39.0635 83.8826C39.5753 81.2243 39.5753 78.6287 39.0635 75.9526L38.6595 73.8224H77.1843L76.7444 75.9705H76.7354ZM73.3956 13.336C75.0296 13.336 76.5558 13.9715 77.714 15.1261L100.671 38.0569C101.82 39.2025 102.458 40.733 102.458 42.362V61.104L100.303 60.6654C98.8214 60.37 97.4298 60.2179 96.0292 60.2179C94.8351 60.2179 93.6321 60.3253 92.3662 60.558L90.2563 60.9339V45.9242C90.2563 45.2619 89.987 44.6174 89.5201 44.1431L71.6089 26.2424C71.1331 25.768 70.5046 25.5085 69.8313 25.5085H38.7044L39.1084 23.3872C39.3418 22.161 39.4585 20.9259 39.4585 19.7087C39.4585 18.3034 39.3059 16.8893 39.0007 15.502L38.5248 13.3271H73.3956V13.336ZM19.7338 5.02114C27.8409 5.02114 34.4398 11.6086 34.4398 19.7087C34.4398 27.8087 27.8409 34.3962 19.7338 34.3962C11.6266 34.3962 5.02771 27.8087 5.02771 19.7087C5.02771 11.6086 11.6266 5.02114 19.7338 5.02114Z" fill="#132278"/>
<path d="M161.111 289.991C168.859 289.991 175.153 283.699 175.153 275.957V263.543C175.153 259.649 177.64 256.212 181.33 254.995C186.654 253.232 191.888 251.066 196.889 248.551C198.155 247.915 199.564 247.584 200.965 247.584C203.371 247.584 205.633 248.515 207.33 250.216L216.12 259.005C218.768 261.654 222.297 263.104 226.049 263.104C229.802 263.104 233.331 261.645 235.979 259.005L258.963 236.056C264.431 230.579 264.431 221.673 258.963 216.204L250.164 207.415C247.408 204.667 246.744 200.479 248.494 196.988C251.008 191.994 253.181 186.758 254.941 181.441C256.162 177.745 259.609 175.266 263.506 175.266H275.958C283.706 175.266 290 168.965 290 161.231V128.769C290 121.027 283.697 114.734 275.958 114.734H263.533C259.636 114.734 256.189 112.255 254.968 108.559C253.208 103.242 251.035 98.0062 248.521 93.0119C246.762 89.5213 247.435 85.3325 250.191 82.5848L258.99 73.8045C264.457 68.3269 264.466 59.4213 258.99 53.9527L236.006 30.995C233.357 28.3547 229.829 26.8958 226.076 26.8958C222.323 26.8958 218.795 28.3547 216.147 30.995L207.348 39.7843C205.642 41.4848 203.38 42.4157 200.983 42.4157C199.573 42.4157 198.173 42.0845 196.907 41.449C191.897 38.934 186.663 36.768 181.348 35.0048C177.649 33.7786 175.162 30.3417 175.162 26.4572V14.0341C175.162 6.29209 168.859 0 161.12 0H129.194C122.29 0 116.32 5.1375 115.305 11.9487C115.099 13.345 115.26 14.786 115.781 16.1196L120.144 27.397C120.512 28.3547 121.455 28.9991 122.488 28.9991C122.793 28.9991 123.098 28.9454 123.385 28.829C124.678 28.3278 125.325 26.8689 124.822 25.5801L120.459 14.3026C120.252 13.7746 120.189 13.2197 120.27 12.6826C120.925 8.30592 124.759 5.01219 129.194 5.01219H161.12C166.094 5.01219 170.152 9.05774 170.152 14.0252V26.4393C170.152 32.4987 174.022 37.851 179.776 39.7574C184.858 41.4401 189.868 43.5076 194.662 45.9152C196.619 46.8998 198.81 47.4189 200.992 47.4189C204.735 47.4189 208.255 45.96 210.903 43.3107L219.693 34.5215C221.399 32.8209 223.661 31.8901 226.076 31.8901C228.491 31.8901 230.763 32.8299 232.469 34.5304L255.452 57.488C258.963 61.0055 258.963 66.7248 255.452 70.2333L246.654 79.0136C242.362 83.3008 241.321 89.8256 244.05 95.2495C246.456 100.029 248.53 105.032 250.218 110.116C252.122 115.871 257.482 119.729 263.542 119.729H275.958C280.932 119.729 284.981 123.774 284.981 128.742V161.205C284.981 166.172 280.932 170.218 275.958 170.218H263.533C257.464 170.218 252.113 174.084 250.209 179.83C248.521 184.914 246.447 189.917 244.041 194.697C241.312 200.121 242.353 206.645 246.645 210.933L255.443 219.713C258.954 223.23 258.954 228.95 255.443 232.458L232.46 255.407C230.754 257.107 228.491 258.047 226.076 258.047C223.661 258.047 221.399 257.107 219.693 255.407L210.903 246.627C208.255 243.977 204.735 242.518 200.992 242.518C198.81 242.518 196.619 243.038 194.662 244.022C189.877 246.43 184.867 248.497 179.776 250.18C174.022 252.086 170.152 257.439 170.152 263.498V275.912C170.152 280.88 166.103 284.925 161.12 284.925H155.491C154.108 284.925 152.986 286.053 152.986 287.431C152.986 288.81 154.108 289.937 155.491 289.937H161.12L161.111 289.991Z" fill="#132278"/>
<path d="M135.389 289.991C136.772 289.991 137.894 288.863 137.894 287.485C137.894 286.107 136.772 284.979 135.389 284.979H129.185C124.741 284.979 120.907 281.676 120.252 277.299C120.171 276.771 120.234 276.216 120.441 275.697L136.996 232.592L138.334 232.691C140.587 232.861 142.868 232.942 145.121 232.942C165.322 232.942 184.266 226.354 199.887 213.886C200.974 213.018 201.153 211.434 200.291 210.351C199.815 209.751 199.097 209.402 198.325 209.402C197.76 209.402 197.221 209.59 196.772 209.948C182.596 221.378 163.858 227.938 145.382 227.938C144.035 227.938 142.679 227.903 141.35 227.831L138.881 227.706L146.136 208.802C146.585 207.621 147.689 206.816 148.946 206.744C181.707 204.784 207.366 177.53 207.366 144.718C207.366 111.906 181.698 84.6434 148.937 82.6922C147.689 82.6206 146.585 81.8151 146.136 80.6426L139.025 62.2675L141.521 62.1601C142.742 62.1064 143.963 62.0796 145.166 62.0796C190.936 62.0796 228.177 99.2772 228.177 145.004C228.177 163.729 222.081 181.397 210.553 196.093C209.7 197.185 209.889 198.769 210.984 199.619C211.433 199.969 211.963 200.156 212.528 200.156C213.31 200.156 214.028 199.807 214.504 199.199C226.732 183.598 233.196 164.865 233.196 145.004C233.196 96.5115 193.701 57.0584 145.166 57.0584C142.993 57.0584 140.74 57.1479 138.477 57.318L137.149 57.4164L132.085 44.3221C131.717 43.3644 130.774 42.72 129.742 42.72C129.437 42.72 129.131 42.7737 128.844 42.89C127.551 43.3913 126.905 44.8502 127.408 46.139L141.467 82.4505C142.625 85.4489 145.444 87.5075 148.65 87.6954C178.771 89.4945 202.365 114.538 202.365 144.718C202.365 174.899 178.78 199.933 148.668 201.732C145.453 201.929 142.634 203.996 141.476 207.003L115.79 273.889C115.278 275.223 115.117 276.655 115.323 278.033C116.338 284.854 122.308 290 129.212 290H135.416L135.389 289.991Z" fill="#132278"/>
</svg>
