<svg width="218" height="205" viewBox="0 0 218 205" fill="none" xmlns="http://www.w3.org/2000/svg">
<path d="M208.66 59.9468H9.34046C6.86321 59.9468 4.48743 58.9645 2.73576 57.2161C0.984081 55.4678 0 53.0964 0 50.6238V9.32298C0 6.85038 0.984081 4.47904 2.73576 2.73064C4.48743 0.982239 6.86321 0 9.34046 0H208.66C211.137 0 213.513 0.982239 215.264 2.73064C217.016 4.47904 218 6.85038 218 9.32298V50.6238C218 53.0964 217.016 55.4678 215.264 57.2161C213.513 58.9645 211.137 59.9468 208.66 59.9468ZM9.34046 6.21532C8.51471 6.21532 7.72278 6.54274 7.13889 7.12554C6.555 7.70833 6.22697 8.49878 6.22697 9.32298V50.6238C6.22697 51.448 6.555 52.2385 7.13889 52.8213C7.72278 53.4041 8.51471 53.7315 9.34046 53.7315H208.66C209.485 53.7315 210.277 53.4041 210.861 52.8213C211.445 52.2385 211.773 51.448 211.773 50.6238V9.32298C211.773 8.49878 211.445 7.70833 210.861 7.12554C210.277 6.54274 209.485 6.21532 208.66 6.21532H9.34046Z" fill="#101745"/>
<path d="M180.582 43.4762C177.907 43.4756 175.291 42.6831 173.067 41.199C170.843 39.715 169.109 37.6059 168.086 35.1385C167.063 32.6712 166.795 29.9563 167.317 27.3372C167.84 24.7181 169.128 22.3125 171.021 20.4244C172.913 18.5363 175.323 17.2506 177.947 16.7298C180.571 16.2091 183.291 16.4767 185.763 17.4987C188.235 18.5208 190.347 20.2515 191.834 22.472C193.32 24.6924 194.113 27.3029 194.113 29.9734C194.109 33.5538 192.682 36.9864 190.145 39.5179C187.609 42.0493 184.169 43.4729 180.582 43.4762ZM180.582 22.6859C179.138 22.6865 177.727 23.1145 176.527 23.9156C175.326 24.7167 174.391 25.8551 173.839 27.1868C173.287 28.5184 173.143 29.9836 173.425 31.397C173.707 32.8104 174.402 34.1087 175.424 35.1275C176.445 36.1464 177.746 36.8401 179.162 37.1211C180.578 37.402 182.046 37.2575 183.38 36.7058C184.714 36.1542 185.854 35.2201 186.656 34.0218C187.458 32.8234 187.886 31.4146 187.886 29.9734C187.884 28.0409 187.113 26.1882 185.744 24.822C184.375 23.4558 182.518 22.6876 180.582 22.6859Z" fill="#101745"/>
<path d="M139.033 43.4762C136.357 43.4762 133.742 42.6843 131.517 41.2006C129.292 39.7169 127.558 37.608 126.534 35.1407C125.51 32.6734 125.243 29.9584 125.765 27.3391C126.286 24.7198 127.575 22.3139 129.467 20.4255C131.359 18.5371 133.769 17.2511 136.393 16.7301C139.018 16.209 141.738 16.4764 144.21 17.4984C146.682 18.5204 148.794 20.2511 150.281 22.4716C151.767 24.6922 152.561 27.3028 152.561 29.9734C152.557 33.5533 151.13 36.9854 148.594 39.5168C146.058 42.0481 142.619 43.4721 139.033 43.4762ZM139.033 22.6859C137.589 22.6859 136.177 23.1133 134.976 23.9141C133.776 24.7148 132.84 25.853 132.287 27.1846C131.735 28.5162 131.59 29.9815 131.872 31.3951C132.154 32.8087 132.849 34.1072 133.87 35.1264C134.891 36.1456 136.192 36.8396 137.608 37.1208C139.025 37.402 140.493 37.2577 141.827 36.7061C143.161 36.1546 144.301 35.2205 145.103 34.0221C145.906 32.8237 146.334 31.4147 146.334 29.9734C146.331 28.0414 145.561 26.1892 144.193 24.8231C142.824 23.457 140.968 22.6884 139.033 22.6859Z" fill="#101745"/>
<path d="M109.872 33.0811H27.0001C26.1744 33.0811 25.3825 32.7536 24.7986 32.1708C24.2147 31.588 23.8867 30.7976 23.8867 29.9734C23.8867 29.1492 24.2147 28.3587 24.7986 27.7759C25.3825 27.1931 26.1744 26.8657 27.0001 26.8657H109.872C110.698 26.8657 111.489 27.1931 112.073 27.7759C112.657 28.3587 112.985 29.1492 112.985 29.9734C112.985 30.7976 112.657 31.588 112.073 32.1708C111.489 32.7536 110.698 33.0811 109.872 33.0811Z" fill="#101745"/>
<path d="M208.66 132.473H9.34046C6.86321 132.473 4.48743 131.491 2.73576 129.743C0.984081 127.994 0 125.623 0 123.15V81.8496C0 79.377 0.984081 77.0056 2.73576 75.2572C4.48743 73.5089 6.86321 72.5266 9.34046 72.5266H208.66C211.137 72.5266 213.513 73.5089 215.264 75.2572C217.016 77.0056 218 79.377 218 81.8496V123.15C218 125.623 217.016 127.994 215.264 129.743C213.513 131.491 211.137 132.473 208.66 132.473ZM9.34046 78.7419C8.51471 78.7419 7.72278 79.0694 7.13889 79.6521C6.555 80.2349 6.22697 81.0254 6.22697 81.8496V123.15C6.22697 123.975 6.555 124.765 7.13889 125.348C7.72278 125.931 8.51471 126.258 9.34046 126.258H208.66C209.485 126.258 210.277 125.931 210.861 125.348C211.445 124.765 211.773 123.975 211.773 123.15V81.8496C211.773 81.0254 211.445 80.2349 210.861 79.6521C210.277 79.0694 209.485 78.7419 208.66 78.7419H9.34046Z" fill="#101745"/>
<path d="M180.582 116.003C177.907 116.002 175.291 115.21 173.067 113.726C170.843 112.242 169.109 110.133 168.086 107.665C167.063 105.198 166.795 102.483 167.317 99.8638C167.84 97.2447 169.128 94.8391 171.021 92.951C172.913 91.0629 175.323 89.7772 177.947 89.2564C180.571 88.7357 183.291 89.0033 185.763 90.0254C188.235 91.0474 190.347 92.7781 191.834 94.9986C193.32 97.219 194.113 99.8295 194.113 102.5C194.109 106.08 192.682 109.513 190.145 112.044C187.609 114.576 184.169 115.999 180.582 116.003ZM180.582 95.2125C179.138 95.2132 177.727 95.6411 176.527 96.4422C175.326 97.2433 174.391 98.3817 173.839 99.7134C173.287 101.045 173.143 102.51 173.425 103.924C173.707 105.337 174.402 106.635 175.424 107.654C176.445 108.673 177.746 109.367 179.162 109.648C180.578 109.929 182.046 109.784 183.38 109.232C184.714 108.681 185.854 107.747 186.656 106.548C187.458 105.35 187.886 103.941 187.886 102.5C187.884 100.567 187.113 98.7148 185.744 97.3486C184.375 95.9824 182.518 95.2142 180.582 95.2125Z" fill="#101745"/>
<path d="M139.033 116.003C136.357 116.003 133.742 115.211 131.517 113.727C129.292 112.243 127.558 110.135 126.534 107.667C125.51 105.2 125.243 102.485 125.765 99.8657C126.286 97.2465 127.575 94.8405 129.467 92.9521C131.359 91.0637 133.769 89.7777 136.393 89.2567C139.018 88.7357 141.738 89.0031 144.21 90.0251C146.682 91.0471 148.794 92.7777 150.281 94.9983C151.767 97.2188 152.561 99.8294 152.561 102.5C152.557 106.08 151.13 109.512 148.594 112.043C146.058 114.575 142.619 115.999 139.033 116.003ZM139.033 95.2125C137.589 95.2125 136.177 95.6399 134.976 96.4407C133.776 97.2415 132.84 98.3796 132.287 99.7112C131.735 101.043 131.59 102.508 131.872 103.922C132.154 105.335 132.849 106.634 133.87 107.653C134.891 108.672 136.192 109.366 137.608 109.647C139.025 109.929 140.493 109.784 141.827 109.233C143.161 108.681 144.301 107.747 145.103 106.549C145.906 105.35 146.334 103.941 146.334 102.5C146.331 100.568 145.561 98.7158 144.193 97.3497C142.824 95.9836 140.968 95.215 139.033 95.2125Z" fill="#101745"/>
<path d="M109.872 105.608H27.0001C26.1744 105.608 25.3825 105.28 24.7986 104.697C24.2147 104.115 23.8867 103.324 23.8867 102.5C23.8867 101.676 24.2147 100.885 24.7986 100.303C25.3825 99.7197 26.1744 99.3923 27.0001 99.3923H109.872C110.698 99.3923 111.489 99.7197 112.073 100.303C112.657 100.885 112.985 101.676 112.985 102.5C112.985 103.324 112.657 104.115 112.073 104.697C111.489 105.28 110.698 105.608 109.872 105.608Z" fill="#101745"/>
<path d="M208.66 205H9.34046C6.86321 205 4.48743 204.018 2.73576 202.269C0.984081 200.521 0 198.15 0 195.677V154.376C0 151.904 0.984081 149.532 2.73576 147.784C4.48743 146.035 6.86321 145.053 9.34046 145.053H208.66C211.137 145.053 213.513 146.035 215.264 147.784C217.016 149.532 218 151.904 218 154.376V195.677C218 198.15 217.016 200.521 215.264 202.269C213.513 204.018 211.137 205 208.66 205ZM9.34046 151.269C8.51471 151.269 7.72278 151.596 7.13889 152.179C6.555 152.762 6.22697 153.552 6.22697 154.376V195.677C6.22697 196.501 6.555 197.292 7.13889 197.874C7.72278 198.457 8.51471 198.785 9.34046 198.785H208.66C209.485 198.785 210.277 198.457 210.861 197.874C211.445 197.292 211.773 196.501 211.773 195.677V154.376C211.773 153.552 211.445 152.762 210.861 152.179C210.277 151.596 209.485 151.269 208.66 151.269H9.34046Z" fill="#101745"/>
<path d="M180.582 188.529C177.907 188.529 175.291 187.736 173.067 186.252C170.843 184.768 169.109 182.659 168.086 180.192C167.063 177.724 166.795 175.01 167.317 172.39C167.84 169.771 169.128 167.366 171.021 165.478C172.913 163.59 175.323 162.304 177.947 161.783C180.571 161.262 183.291 161.53 185.763 162.552C188.235 163.574 190.347 165.305 191.834 167.525C193.32 169.746 194.113 172.356 194.113 175.027C194.109 178.607 192.682 182.04 190.145 184.571C187.609 187.103 184.169 188.526 180.582 188.529ZM180.582 167.739C179.138 167.74 177.727 168.168 176.527 168.969C175.326 169.77 174.391 170.908 173.839 172.24C173.287 173.572 173.143 175.037 173.425 176.45C173.707 177.864 174.402 179.162 175.424 180.181C176.445 181.2 177.746 181.893 179.162 182.174C180.578 182.455 182.046 182.311 183.38 181.759C184.714 181.207 185.854 180.273 186.656 179.075C187.458 177.877 187.886 176.468 187.886 175.027C187.884 173.094 187.113 171.241 185.744 169.875C184.375 168.509 182.518 167.741 180.582 167.739Z" fill="#101745"/>
<path d="M139.033 188.529C136.357 188.529 133.742 187.737 131.517 186.254C129.292 184.77 127.558 182.661 126.534 180.194C125.51 177.727 125.243 175.012 125.765 172.392C126.286 169.773 127.575 167.367 129.467 165.479C131.359 163.59 133.769 162.304 136.393 161.783C139.018 161.262 141.738 161.53 144.21 162.552C146.682 163.574 148.794 165.304 150.281 167.525C151.767 169.745 152.561 172.356 152.561 175.027C152.557 178.607 151.13 182.039 148.594 184.57C146.058 187.101 142.619 188.525 139.033 188.529ZM139.033 167.739C137.589 167.739 136.177 168.167 134.976 168.967C133.776 169.768 132.84 170.906 132.287 172.238C131.735 173.569 131.59 175.035 131.872 176.448C132.154 177.862 132.849 179.16 133.87 180.18C134.891 181.199 136.192 181.893 137.608 182.174C139.025 182.455 140.493 182.311 141.827 181.759C143.161 181.208 144.301 180.274 145.103 179.075C145.906 177.877 146.334 176.468 146.334 175.027C146.331 173.095 145.561 171.242 144.193 169.876C142.824 168.51 140.968 167.742 139.033 167.739Z" fill="#101745"/>
<path d="M109.872 178.134H27.0001C26.1744 178.134 25.3825 177.807 24.7986 177.224C24.2147 176.641 23.8867 175.851 23.8867 175.027C23.8867 174.202 24.2147 173.412 24.7986 172.829C25.3825 172.246 26.1744 171.919 27.0001 171.919H109.872C110.698 171.919 111.489 172.246 112.073 172.829C112.657 173.412 112.985 174.202 112.985 175.027C112.985 175.851 112.657 176.641 112.073 177.224C111.489 177.807 110.698 178.134 109.872 178.134Z" fill="#101745"/>
<path d="M185.311 78.7513C184.486 78.7513 183.694 78.4238 183.11 77.841C182.526 77.2582 182.198 76.4678 182.198 75.6436V59.953H35.802V75.6436C35.802 76.4678 35.4739 77.2582 34.89 77.841C34.3061 78.4238 33.5142 78.7513 32.6885 78.7513C31.8627 78.7513 31.0708 78.4238 30.4869 77.841C29.903 77.2582 29.575 76.4678 29.575 75.6436V56.8453C29.575 56.0211 29.903 55.2307 30.4869 54.6479C31.0708 54.0651 31.8627 53.7377 32.6885 53.7377H185.311C186.137 53.7377 186.929 54.0651 187.513 54.6479C188.097 55.2307 188.425 56.0211 188.425 56.8453V75.6436C188.425 76.4678 188.097 77.2582 187.513 77.841C186.929 78.4238 186.137 78.7513 185.311 78.7513Z" fill="#101745"/>
<path d="M185.311 151.253H32.6885C31.8627 151.253 31.0708 150.926 30.4869 150.343C29.903 149.76 29.575 148.97 29.575 148.145V129.375C29.575 128.551 29.903 127.76 30.4869 127.178C31.0708 126.595 31.8627 126.267 32.6885 126.267C33.5142 126.267 34.3061 126.595 34.89 127.178C35.4739 127.76 35.802 128.551 35.802 129.375V145.038H182.198V129.375C182.198 128.551 182.526 127.76 183.11 127.178C183.694 126.595 184.486 126.267 185.311 126.267C186.137 126.267 186.929 126.595 187.513 127.178C188.097 127.76 188.425 128.551 188.425 129.375V148.145C188.425 148.97 188.097 149.76 187.513 150.343C186.929 150.926 186.137 151.253 185.311 151.253Z" fill="#101745"/>
</svg>
