<svg width="290" height="290" viewBox="0 0 290 290" fill="none" xmlns="http://www.w3.org/2000/svg">
<path d="M270.266 289.991C264.152 289.991 258.478 287.216 254.707 282.365L254.169 281.676H216.604C213.633 281.676 210.841 280.522 208.749 278.427L185.792 255.496C183.691 253.402 182.533 250.61 182.533 247.638V226.175L181.841 225.638C176.993 221.861 174.21 216.195 174.21 210.082C174.21 208.23 174.47 206.377 174.991 204.596L175.243 203.737L157.224 179.812L156.012 180.197C152.411 181.343 148.659 181.916 144.861 181.916C124.49 181.916 107.916 165.358 107.916 145.004C107.916 124.651 124.49 108.093 144.861 108.093C148.712 108.093 152.528 108.693 156.191 109.874L157.412 110.268L175.269 86.3439L175.009 85.4847C172.72 77.8769 175.521 69.204 181.823 64.3798L182.524 63.8428V42.3709C182.524 39.3994 183.682 36.6158 185.783 34.5125L208.74 11.5817C210.841 9.48736 213.633 8.33277 216.595 8.33277H254.16L254.698 7.64359C258.478 2.80146 264.152 0.0179007 270.257 0.0179007C281.139 0.0179007 289.982 8.86084 289.982 19.7266C289.982 30.5923 281.13 39.4352 270.257 39.4352C263.973 39.4352 258.011 36.3921 254.294 31.2904L253.756 30.5475H221.192L204.744 46.9714V63.44L205.481 63.977C207.088 65.1406 208.497 66.5279 209.682 68.1031L210.221 68.8192H253.935L254.474 68.1031C258.245 63.091 264 60.2179 270.248 60.2179C281.13 60.2179 289.973 69.0608 289.973 79.9265C289.973 90.7923 281.121 99.6352 270.248 99.6352C264 99.6352 258.254 96.7621 254.474 91.7499L253.935 91.0339H210.221L209.682 91.7499C205.921 96.7442 200.193 99.6173 193.971 99.6352H193.073L175.063 123.765L175.754 124.812C177.379 127.283 178.699 129.932 179.678 132.698L180.1 133.888H207.411C208.794 133.888 209.916 135.016 209.916 136.394C209.916 137.773 208.794 138.9 207.411 138.9H181.348L181.563 140.878C181.958 144.512 181.752 147.314 181.563 149.104L181.357 151.082H251.349L250.936 148.952C250.425 146.293 250.425 143.698 250.936 141.022L251.341 138.891H228.051C226.669 138.891 225.547 137.764 225.547 136.385C225.547 135.007 226.669 133.879 228.051 133.879H253.944L254.483 133.163C258.254 128.151 264.009 125.278 270.257 125.278C281.139 125.278 289.982 134.121 289.982 144.987C289.982 155.852 281.13 164.695 270.257 164.695C264.009 164.695 258.263 161.822 254.483 156.81L253.944 156.094H180.1L179.678 157.284C178.672 160.113 177.316 162.825 175.656 165.331L174.955 166.387L193.001 190.347H193.899C200.175 190.347 205.93 193.22 209.7 198.232L210.239 198.948H253.953L254.492 198.232C258.263 193.22 264.018 190.347 270.266 190.347C281.148 190.347 289.991 199.19 289.991 210.056C289.991 220.921 281.139 229.764 270.266 229.764C264.018 229.764 258.272 226.891 254.492 221.879L253.953 221.163H210.239L209.7 221.879C208.515 223.445 207.106 224.842 205.499 226.005L204.762 226.542V243.011L221.21 259.435H253.774L254.312 258.692C258.029 253.59 263.991 250.547 270.275 250.547C281.157 250.547 290 259.39 290 270.256C290 281.121 281.148 289.964 270.275 289.964L270.266 289.991ZM270.266 255.586C262.159 255.586 255.56 262.173 255.56 270.282C255.56 278.391 262.159 284.97 270.266 284.97C278.373 284.97 284.972 278.382 284.972 270.282C284.972 262.182 278.373 255.586 270.266 255.586ZM187.542 247.629C187.542 249.258 188.18 250.78 189.329 251.934L212.286 274.865C213.435 276.02 214.97 276.655 216.604 276.655H251.439L250.999 274.507C250.272 270.927 250.586 268.269 250.892 266.577L251.269 264.474H220.169C219.495 264.474 218.867 264.214 218.391 263.74L200.48 245.839C200.013 245.374 199.744 244.729 199.744 244.067V229.03L197.616 229.433C196.458 229.648 195.237 229.764 193.998 229.764C192.175 229.764 190.658 229.523 189.706 229.326L187.542 228.869V247.629ZM270.266 195.377C262.159 195.377 255.56 201.964 255.56 210.064C255.56 218.165 262.159 224.752 270.266 224.752C278.373 224.752 284.972 218.165 284.972 210.064C284.972 201.964 278.373 195.377 270.266 195.377ZM193.926 195.377C185.819 195.377 179.22 201.964 179.22 210.064C179.22 218.165 185.819 224.752 193.926 224.752C202.033 224.752 208.632 218.165 208.632 210.064C208.632 201.964 202.033 195.377 193.926 195.377ZM213.256 206.108C213.767 208.767 213.767 211.353 213.256 214.038L212.852 216.169H251.349L250.936 214.038C250.425 211.38 250.425 208.785 250.936 206.108L251.341 203.978H212.843L213.256 206.108ZM170.233 171.784C168.231 173.681 166.031 175.346 163.688 176.733L161.973 177.754L177.72 198.662L179.175 197.015C180.953 195.01 183.08 193.408 185.478 192.262L187.453 191.322L171.696 170.397L170.233 171.775V171.784ZM144.861 113.097C127.255 113.097 112.935 127.399 112.935 144.987C112.935 162.574 127.255 176.877 144.861 176.877C162.467 176.877 176.787 162.574 176.787 144.987C176.787 127.399 162.467 113.097 144.861 113.097ZM270.275 130.299C262.168 130.299 255.569 136.887 255.569 144.987C255.569 153.087 262.168 159.674 270.275 159.674C278.382 159.674 284.981 153.087 284.981 144.987C284.981 136.887 278.382 130.299 270.275 130.299ZM162.144 112.318L163.84 113.338C166.166 114.734 168.365 116.417 170.367 118.324L171.84 119.729L187.542 98.6954L185.558 97.7646C183.152 96.6279 181.024 95.0437 179.229 93.0477L177.765 91.4098L162.144 112.336V112.318ZM270.275 65.2211C262.168 65.2211 255.569 71.8086 255.569 79.9086C255.569 88.0087 262.168 94.5962 270.275 94.5962C278.382 94.5962 284.981 88.0087 284.981 79.9086C284.981 71.8086 278.382 65.2211 270.275 65.2211ZM193.935 65.2211C185.828 65.2211 179.229 71.8086 179.229 79.9086C179.229 88.0087 185.828 94.5962 193.935 94.5962C202.042 94.5962 208.641 88.0087 208.641 79.9086C208.641 71.8086 202.042 65.2211 193.935 65.2211ZM213.265 75.9705C213.525 77.2593 213.66 78.5929 213.66 79.9176C213.66 81.2422 213.525 82.5669 213.265 83.8647L212.825 86.0128H251.349L250.936 83.8826C250.425 81.2243 250.425 78.6287 250.936 75.9526L251.341 73.8224H212.816L213.256 75.9705H213.265ZM216.604 13.336C214.97 13.336 213.444 13.9715 212.286 15.1261L189.329 38.0569C188.18 39.2025 187.542 40.733 187.542 42.362V61.104L189.697 60.6654C191.179 60.37 192.57 60.2179 193.971 60.2179C195.165 60.2179 196.368 60.3253 197.634 60.558L199.744 60.9339V45.9242C199.744 45.2619 200.013 44.6174 200.48 44.1431L218.391 26.2424C218.867 25.768 219.495 25.5085 220.169 25.5085H251.296L250.892 23.3872C250.658 22.161 250.541 20.9259 250.541 19.7087C250.541 18.3034 250.694 16.8893 250.999 15.502L251.475 13.3271H216.604V13.336ZM270.266 5.02114C262.159 5.02114 255.56 11.6086 255.56 19.7087C255.56 27.8087 262.159 34.3962 270.266 34.3962C278.373 34.3962 284.972 27.8087 284.972 19.7087C284.972 11.6086 278.373 5.02114 270.266 5.02114Z" fill="#E1E6EB"/>
<path d="M128.889 289.991C121.141 289.991 114.847 283.699 114.847 275.957V263.543C114.847 259.649 112.36 256.212 108.67 254.995C103.346 253.232 98.1121 251.066 93.1114 248.551C91.8455 247.915 90.4359 247.584 89.0353 247.584C86.6292 247.584 84.3667 248.515 82.6699 250.216L73.8804 259.005C71.2318 261.654 67.7035 263.104 63.9507 263.104C60.1978 263.104 56.6694 261.645 54.0209 259.005L31.0371 236.056C25.5695 230.579 25.5695 221.673 31.0371 216.204L39.8356 207.415C42.5919 204.667 43.2562 200.479 41.5055 196.988C38.9917 191.994 36.819 186.758 35.0593 181.441C33.8383 177.745 30.3907 175.266 26.4942 175.266H14.0417C6.29361 175.266 0 168.965 0 161.231V128.769C0 121.027 6.30259 114.734 14.0417 114.734H26.4673C30.3638 114.734 33.8113 112.255 35.0324 108.559C36.792 103.242 38.9647 98.0062 41.4786 93.0119C43.2383 89.5213 42.5649 85.3325 39.8087 82.5848L31.0102 73.8045C25.5426 68.3269 25.5336 59.4213 31.0102 53.9527L53.994 30.995C56.6425 28.3547 60.1709 26.8958 63.9237 26.8958C67.6765 26.8958 71.2049 28.3547 73.8534 30.995L82.6519 39.7843C84.3577 41.4848 86.6202 42.4157 89.0174 42.4157C90.4269 42.4157 91.8275 42.0845 93.0934 41.449C98.1031 38.934 103.337 36.768 108.652 35.0048C112.351 33.7786 114.838 30.3417 114.838 26.4572V14.0341C114.838 6.29209 121.141 0 128.88 0H160.806C167.71 0 173.68 5.1375 174.695 11.9487C174.901 13.345 174.74 14.786 174.219 16.1196L169.856 27.397C169.488 28.3547 168.545 28.9991 167.512 28.9991C167.207 28.9991 166.902 28.9454 166.615 28.829C165.322 28.3278 164.675 26.8689 165.178 25.5801L169.541 14.3026C169.748 13.7746 169.811 13.2197 169.73 12.6826C169.075 8.30592 165.241 5.01219 160.806 5.01219H128.88C123.906 5.01219 119.848 9.05774 119.848 14.0252V26.4393C119.848 32.4987 115.978 37.851 110.224 39.7574C105.142 41.4401 100.132 43.5076 95.3379 45.9152C93.3807 46.8998 91.19 47.4189 89.0084 47.4189C85.2645 47.4189 81.7451 45.96 79.0966 43.3107L70.3071 34.5215C68.6013 32.8209 66.3388 31.8901 63.9237 31.8901C61.5086 31.8901 59.2372 32.8299 57.5313 34.5304L34.5475 57.488C31.0371 61.0055 31.0371 66.7248 34.5475 70.2333L43.346 79.0136C47.6375 83.3008 48.679 89.8256 45.9497 95.2495C43.5435 100.029 41.4696 105.032 39.7817 110.116C37.8784 115.871 32.5185 119.729 26.4583 119.729H14.0417C9.06783 119.729 5.01873 123.774 5.01873 128.742V161.205C5.01873 166.172 9.06783 170.218 14.0417 170.218H26.4673C32.5365 170.218 37.8874 174.084 39.7907 179.83C41.4786 184.914 43.5525 189.917 45.9586 194.697C48.688 200.121 47.6465 206.645 43.355 210.933L34.5565 219.713C31.0461 223.23 31.0461 228.95 34.5565 232.458L57.5403 255.407C59.2461 257.107 61.5086 258.047 63.9237 258.047C66.3388 258.047 68.6013 257.107 70.3071 255.407L79.0966 246.627C81.7451 243.977 85.2645 242.518 89.0084 242.518C91.19 242.518 93.3807 243.038 95.3379 244.022C100.123 246.43 105.133 248.497 110.224 250.18C115.978 252.086 119.848 257.439 119.848 263.498V275.912C119.848 280.88 123.897 284.925 128.88 284.925H134.509C135.892 284.925 137.014 286.053 137.014 287.431C137.014 288.81 135.892 289.937 134.509 289.937H128.88L128.889 289.991Z" fill="#E1E6EB"/>
<path d="M154.611 289.991C153.228 289.991 152.106 288.863 152.106 287.485C152.106 286.107 153.228 284.979 154.611 284.979H160.815C165.259 284.979 169.093 281.676 169.748 277.299C169.829 276.771 169.766 276.216 169.559 275.697L153.004 232.592L151.666 232.691C149.413 232.861 147.132 232.942 144.879 232.942C124.678 232.942 105.734 226.354 90.1127 213.886C89.0263 213.018 88.8468 211.434 89.7087 210.351C90.1845 209.751 90.9028 209.402 91.6749 209.402C92.2405 209.402 92.7792 209.59 93.2281 209.948C107.404 221.378 126.142 227.938 144.618 227.938C145.965 227.938 147.321 227.903 148.65 227.831L151.119 227.706L143.864 208.802C143.415 207.621 142.311 206.816 141.054 206.744C108.293 204.784 82.634 177.53 82.634 144.718C82.634 111.906 108.302 84.6434 141.063 82.6922C142.311 82.6206 143.415 81.8151 143.864 80.6426L150.975 62.2675L148.479 62.1601C147.258 62.1064 146.037 62.0796 144.834 62.0796C99.0638 62.0796 61.8228 99.2772 61.8228 145.004C61.8228 163.729 67.9189 181.397 79.4468 196.093C80.2997 197.185 80.1111 198.769 79.0158 199.619C78.5669 199.969 78.0372 200.156 77.4716 200.156C76.6905 200.156 75.9723 199.807 75.4964 199.199C63.2683 183.598 56.8041 164.865 56.8041 145.004C56.8041 96.5115 96.2986 57.0584 144.834 57.0584C147.007 57.0584 149.26 57.1479 151.523 57.318L152.851 57.4164L157.915 44.3221C158.283 43.3644 159.226 42.72 160.258 42.72C160.563 42.72 160.869 42.7737 161.156 42.89C162.449 43.3913 163.095 44.8502 162.592 46.139L148.533 82.4505C147.375 85.4489 144.556 87.5075 141.35 87.6954C111.229 89.4945 87.6347 114.538 87.6347 144.718C87.6347 174.899 111.22 199.933 141.332 201.732C144.547 201.929 147.366 203.996 148.524 207.003L174.21 273.889C174.722 275.223 174.883 276.655 174.677 278.033C173.662 284.854 167.692 290 160.788 290H154.584L154.611 289.991Z" fill="#E1E6EB"/>
</svg>
