<svg width="88" height="61" viewBox="0 0 88 61" fill="none" xmlns="http://www.w3.org/2000/svg">
<path d="M68.6813 38.8182C64.8778 38.8182 61.1598 37.6799 57.9973 35.5472C54.8348 33.4145 52.3699 30.3832 50.9144 26.8366C49.4589 23.2901 49.078 19.3876 49.8201 15.6226C50.5621 11.8576 52.3936 8.39921 55.0831 5.6848C57.7726 2.9704 61.1992 1.12185 64.9296 0.372953C68.66 -0.375952 72.5267 0.00841387 76.0406 1.47744C79.5546 2.94647 82.558 5.43418 84.6711 8.62599C86.7842 11.8178 87.9121 15.5703 87.9121 19.4091L88 22.1818C88 32.477 83.9478 42.3506 76.7349 49.6304C69.5219 56.9102 59.7391 61 49.5385 61L49.5385 49.9091C53.1478 49.9189 56.7232 49.2064 60.0581 47.8129C63.3929 46.4194 66.4209 44.3725 68.967 41.7905C69.9568 40.7938 70.8697 39.7223 71.6978 38.5853C70.7125 38.7442 69.7088 38.8237 68.6868 38.8237L68.6813 38.8182ZM19.2308 38.8182C15.4273 38.8182 11.7092 37.6799 8.54672 35.5472C5.38424 33.4145 2.91938 30.3832 1.46385 26.8366C0.00831934 23.2901 -0.372509 19.3876 0.369511 15.6226C1.11154 11.8576 2.94309 8.39921 5.63257 5.6848C8.32203 2.97039 11.7486 1.12185 15.479 0.372949C19.2094 -0.375956 23.0761 0.00840955 26.5901 1.47744C30.104 2.94647 33.1075 5.43418 35.2206 8.62598C37.3337 11.8178 38.4615 15.5703 38.4615 19.4091L38.5494 22.1818C38.5494 32.477 34.4973 42.3506 27.2843 49.6304C20.0714 56.9102 10.2885 61 0.0879059 61L0.0879069 49.9091C3.69724 49.9189 7.27268 49.2064 10.6075 47.8129C13.9423 46.4194 16.9703 44.3725 19.5165 41.7905C20.5062 40.7938 21.4191 39.7223 22.2472 38.5853C21.2619 38.7442 20.2564 38.8182 19.2308 38.8182Z" fill="#F5F6F7"/>
</svg>
