<svg width="328" height="322" viewBox="0 0 328 322" fill="none" xmlns="http://www.w3.org/2000/svg">
<path d="M279.163 80.8341C279.384 72.4172 273.292 65.0758 264.992 63.7547C233.551 58.76 199.121 49.0334 170.524 37.0695C166.316 35.3129 161.68 35.3129 157.477 37.0695C128.881 49.0334 94.4504 58.76 63.0071 63.7575C54.7064 65.0758 48.6153 72.4172 48.8358 80.8312C50.8654 158.587 65.2601 244.015 156.629 288.106C158.937 289.22 161.467 289.774 163.999 289.774C166.531 289.774 169.06 289.22 171.369 288.106C262.738 244.029 277.133 158.593 279.163 80.8341ZM166.449 277.934C164.941 278.662 163.064 278.662 161.55 277.934C75.6509 236.483 62.0819 154.889 60.1411 80.5364C60.0692 77.762 62.0655 75.3435 64.7857 74.9131C97.079 69.7807 132.457 59.7835 161.849 47.4886C163.257 46.8984 164.74 46.8984 166.154 47.4886C195.545 59.7835 230.923 69.7807 263.214 74.9103C265.934 75.3435 267.93 77.7621 267.858 80.5392C265.917 154.895 252.347 236.495 166.449 277.934ZM262.449 255.733C264.854 257.727 265.182 261.288 263.189 263.687C243.009 287.956 216.906 307.408 185.604 321.5C184.848 321.84 184.061 321.999 183.282 321.999C181.126 321.999 179.069 320.764 178.124 318.673C176.84 315.827 178.108 312.485 180.955 311.202C210.678 297.821 235.416 279.406 254.486 256.472C256.485 254.073 260.052 253.748 262.449 255.733ZM312.757 94.8415C309.642 94.6483 306.972 97.0589 306.801 100.172C304.601 140.306 297.794 173.854 286.136 202.657C285.026 202.489 283.915 202.316 282.758 202.316C270.285 202.316 260.137 212.451 260.137 224.909C260.137 237.366 270.285 247.501 282.758 247.501C295.231 247.501 305.379 237.366 305.379 224.909C305.379 217.65 301.874 211.251 296.531 207.115C308.716 177.091 315.819 142.288 318.095 100.79C318.266 97.6763 315.874 95.0126 312.757 94.8415ZM282.758 236.205C276.52 236.205 271.448 231.138 271.448 224.909C271.448 218.679 276.52 213.612 282.758 213.612C288.996 213.612 294.068 218.679 294.068 224.909C294.068 231.138 288.996 236.205 282.758 236.205ZM305.379 10.2792C295.168 10.2792 286.615 17.1157 283.813 26.4142C252.222 22.8017 214.635 13.0615 184.27 0.433371C181.387 -0.760645 178.077 0.596039 176.876 3.47828C175.677 6.35771 177.041 9.66413 179.924 10.8638C211.446 23.9714 250.562 34.0697 283.315 37.7286C285.551 47.854 294.579 55.4643 305.379 55.4643C317.852 55.4643 328 45.3293 328 32.8718C328 20.4142 317.852 10.2792 305.379 10.2792ZM305.379 44.168C299.141 44.168 294.068 39.1017 294.068 32.8718C294.068 26.6419 299.141 21.5755 305.379 21.5755C311.616 21.5755 316.689 26.6419 316.689 32.8718C316.689 39.1017 311.616 44.168 305.379 44.168ZM149.875 318.674C148.931 320.764 146.873 322 144.717 322C143.938 322 143.151 321.84 142.395 321.501C111.092 307.408 84.9899 287.956 64.8105 263.688C62.8171 261.288 63.1457 257.728 65.5508 255.734C67.9503 253.748 71.5181 254.074 73.5144 256.473C92.5842 279.407 117.323 297.822 147.045 311.203C149.892 312.486 151.159 315.827 149.875 318.674ZM44.6843 37.7269C77.4374 34.068 116.553 23.9714 148.075 10.8638C150.958 9.66413 152.322 6.35714 151.124 3.47828C149.923 0.598863 146.617 -0.757821 143.729 0.433371C113.358 13.0643 75.7748 22.791 44.1816 26.4001C41.3749 17.1084 32.8266 10.2792 22.6207 10.2792C10.1476 10.2792 0 20.4142 0 32.8718C0 45.3293 10.1476 55.4643 22.6207 55.4643C33.4215 55.4643 42.45 47.8535 44.6843 37.7269ZM11.3098 32.8718C11.3098 26.6419 16.3825 21.5755 22.6201 21.5755C28.8578 21.5755 33.9305 26.6419 33.9305 32.8718C33.9305 39.1017 28.8578 44.168 22.6201 44.168C16.3825 44.168 11.3098 39.1017 11.3098 32.8718ZM45.2408 202.316C44.0843 202.316 42.9737 202.489 41.8624 202.657C30.2048 173.854 23.3977 140.306 21.1978 100.172C21.0237 97.0584 18.3013 94.6398 15.2418 94.8415C12.1241 95.0126 9.73312 97.6768 9.90447 100.79C12.1801 142.288 19.283 177.092 31.4688 207.115C26.1258 211.251 22.6207 217.65 22.6207 224.909C22.6207 237.366 32.7683 247.501 45.2414 247.501C57.7144 247.501 67.8621 237.366 67.8621 224.909C67.8621 212.451 57.7139 202.316 45.2408 202.316ZM45.2408 236.205C39.0032 236.205 33.9305 231.138 33.9305 224.909C33.9305 218.679 39.0032 213.612 45.2408 213.612C51.4785 213.612 56.5512 218.679 56.5512 224.909C56.5512 231.138 51.4785 236.205 45.2408 236.205ZM197.93 134.629C197.93 124.378 193.358 114.789 185.386 108.319C177.414 101.843 166.965 99.3696 156.743 101.496C143.958 104.163 133.547 114.538 130.841 127.313C128.207 139.773 132.518 152.285 141.926 160.321L132.841 187.534C131.695 190.97 132.272 194.776 134.393 197.713C136.514 200.653 139.943 202.407 143.569 202.407H184.431C188.057 202.407 191.486 200.653 193.607 197.713C195.728 194.776 196.305 190.97 195.159 187.536L186.077 160.321C193.568 153.92 197.93 144.599 197.93 134.629ZM176.332 153.526C174.18 154.93 173.247 157.608 174.059 160.043L184.43 191.111H143.571L153.94 160.043C154.752 157.608 153.818 154.933 151.67 153.529C143.762 148.366 139.932 138.992 141.909 129.649C143.701 121.19 150.59 114.32 159.056 112.555C160.735 112.205 162.403 112.031 164.046 112.031C169.234 112.031 174.155 113.76 178.253 117.086C183.571 121.4 186.62 127.795 186.62 134.629C186.62 142.258 182.773 149.323 176.332 153.526Z" fill="#1656FA"/>
</svg>
